<svg width="106" height="107" xmlns="http://www.w3.org/2000/svg" xmlns:xlink="http://www.w3.org/1999/xlink" xml:space="preserve" overflow="hidden"><defs><filter id="fx0" x="-10%" y="-10%" width="120%" height="120%" filterUnits="userSpaceOnUse" primitiveUnits="userSpaceOnUse"><feComponentTransfer color-interpolation-filters="sRGB"><feFuncR type="discrete" tableValues="0.0470588 0.0470588"/><feFuncG type="discrete" tableValues="0.027451 0.027451"/><feFuncB type="discrete" tableValues="0.239216 0.239216"/><feFuncA type="linear" slope="0.4" intercept="0"/></feComponentTransfer><feGaussianBlur stdDeviation="1.77778 1.77778"/></filter><clipPath id="clip1"><rect x="590" y="240" width="106" height="107"/></clipPath><radialGradient cx="0" cy="0" r="1" gradientUnits="userSpaceOnUse" spreadMethod="pad" id="fill2" gradientTransform="matrix(-2.44789 -69.5211 31.2458 -1.10019 78.823 69.5203)"><stop offset="0" stop-color="#2052CB" stop-opacity="0"/><stop offset="0.539446" stop-color="#2052CB" stop-opacity="0"/><stop offset="1" stop-color="#163697"/></radialGradient><radialGradient cx="0" cy="0" r="1" gradientUnits="userSpaceOnUse" spreadMethod="pad" id="fill3" gradientTransform="matrix(11.0157 -39.1055 33.7767 9.51456 69.2148 91.7961)"><stop offset="0" stop-color="#BABAFF" stop-opacity="0"/><stop offset="0.513697" stop-color="#BABAFF" stop-opacity="0"/><stop offset="1" stop-color="#FECBE6"/></radialGradient><linearGradient x1="49.9375" y1="32.8014" x2="49.9375" y2="-0.000719331" gradientUnits="userSpaceOnUse" spreadMethod="pad" id="fill4"><stop offset="0" stop-color="#BABAFF" stop-opacity="0"/><stop offset="1" stop-color="#FECBE6"/></linearGradient><clipPath id="clip5"><rect x="593" y="243" width="94" height="95"/></clipPath><clipPath id="clip6"><rect x="593" y="243" width="94" height="95"/></clipPath><clipPath id="clip7"><rect x="593" y="243" width="94" height="95"/></clipPath><clipPath id="clip8"><rect x="593" y="243" width="94" height="95"/></clipPath><clipPath id="clip9"><rect x="593" y="243" width="94" height="95"/></clipPath><linearGradient x1="60.7082" y1="5.3847" x2="85.1875" y2="63.1555" gradientUnits="userSpaceOnUse" spreadMethod="pad" id="fill10"><stop offset="0" stop-color="#1B44B1"/><stop offset="1" stop-color="#2764E7"/></linearGradient><radialGradient cx="0" cy="0" r="1" gradientUnits="userSpaceOnUse" spreadMethod="pad" id="fill11" gradientTransform="matrix(-2.44789 -69.5211 31.2458 -1.10019 78.823 69.5203)"><stop offset="0" stop-color="#2052CB" stop-opacity="0"/><stop offset="0.539446" stop-color="#2052CB" stop-opacity="0"/><stop offset="1" stop-color="#163697"/></radialGradient><linearGradient x1="94.5963" y1="93.9993" x2="94.7068" y2="54.3434" gradientUnits="userSpaceOnUse" spreadMethod="pad" id="fill12"><stop offset="0" stop-color="#367AF2"/><stop offset="1" stop-color="#BABAFF"/></linearGradient><radialGradient cx="0" cy="0" r="1" gradientUnits="userSpaceOnUse" spreadMethod="pad" id="fill13" gradientTransform="matrix(11.0157 -39.1055 33.7767 9.51456 69.2148 91.7961)"><stop offset="0" stop-color="#BABAFF" stop-opacity="0"/><stop offset="0.513697" stop-color="#BABAFF" stop-opacity="0"/><stop offset="1" stop-color="#FECBE6"/></radialGradient><linearGradient x1="55.8125" y1="-0.000717161" x2="55.8125" y2="93.9993" gradientUnits="userSpaceOnUse" spreadMethod="pad" id="fill14"><stop offset="0" stop-color="#BABAFF"/><stop offset="0.513233" stop-color="#4894FE"/><stop offset="1" stop-color="#2764E7"/></linearGradient><linearGradient x1="49.9375" y1="32.8014" x2="49.9375" y2="-0.000719331" gradientUnits="userSpaceOnUse" spreadMethod="pad" id="fill15"><stop offset="0" stop-color="#BABAFF" stop-opacity="0"/><stop offset="1" stop-color="#FECBE6"/></linearGradient></defs><g clip-path="url(#clip1)" transform="translate(-590 -240)"><g filter="url(#fx0)" transform="translate(589 239)"><g><g><g><g><g><g><path d="M47.6143 23.4913C47.434 16.6025 47.3441 13.1581 48.3233 10.409 49.8545 6.11044 53.1838 2.69303 57.4406 1.05003 60.1633-0.000717161 63.609-0.000717161 70.5-0.000717161 77.4619-0.000717165 83.4871 12.2496 87.5463 29.3113 89.4072 37.1333 90.3377 41.0442 87.9855 44.0217 85.6333 46.9993 81.364 46.9993 72.825 46.9993L63.6457 46.9993C54.4928 46.9993 50.1259 48.981 48.5873 60.7148L47.6143 23.4913Z" fill="#FF0000" transform="matrix(1 0 0 1.01064 6.82843 6.82843)"/><path d="M47.6143 23.4913C47.434 16.6025 47.3441 13.1581 48.3233 10.409 49.8545 6.11044 53.1838 2.69303 57.4406 1.05003 60.1633-0.000717161 63.609-0.000717161 70.5-0.000717161 77.4619-0.000717165 83.4871 12.2496 87.5463 29.3113 89.4072 37.1333 90.3377 41.0442 87.9855 44.0217 85.6333 46.9993 81.364 46.9993 72.825 46.9993L63.6457 46.9993C54.4928 46.9993 50.1259 48.981 48.5873 60.7148L47.6143 23.4913Z" fill="url(#fill2)" transform="matrix(1 -4.72435e-18 4.72435e-18 1.01064 6.82843 6.82843)"/><path d="M54.3438 74.1711C54.3438 63.2205 63.2212 54.343 74.1719 54.343 85.1225 54.343 94 63.2205 94 74.1711 94 85.1218 85.1225 93.9993 74.1719 93.9993 63.2212 93.9993 54.3438 85.1218 54.3438 74.1711Z" fill="#FF0000" transform="matrix(1 0 0 1.01064 6.82843 6.82843)"/><path d="M54.3438 74.1711C54.3438 63.2205 63.2212 54.343 74.1719 54.343 85.1225 54.343 94 63.2205 94 74.1711 94 85.1218 85.1225 93.9993 74.1719 93.9993 63.2212 93.9993 54.3438 85.1218 54.3438 74.1711Z" fill="url(#fill3)" transform="matrix(1 0 0 1.01064 6.82843 6.82843)"/><path d="M47-0.000717161C24.8065-0.000717161 6.75324 31.0505 1.52893 70.5621 0.16907 80.8466-0.510861 85.9891 2.99959 89.994 6.51005 93.9993 12.1734 93.9993 23.5 93.9993 34.4033 93.9993 39.8549 93.9993 43.2415 90.837 46.6277 87.6745 47.0195 81.9537 47.8027 70.5121 50.4038 32.5213 59.097-0.000717161 70.5-0.000717161L47-0.000717161Z" fill="#FF0000" transform="matrix(1 0 0 1.01064 6.82843 6.82843)"/><path d="M47-0.000717161C24.8065-0.000717161 6.75324 31.0505 1.52893 70.5621 0.16907 80.8466-0.510861 85.9891 2.99959 89.994 6.51005 93.9993 12.1734 93.9993 23.5 93.9993 34.4033 93.9993 39.8549 93.9993 43.2415 90.837 46.6277 87.6745 47.0195 81.9537 47.8027 70.5121 50.4038 32.5213 59.097-0.000717161 70.5-0.000717161L47-0.000717161Z" fill="url(#fill4)" transform="matrix(1 0 0 1.01064 6.82843 6.82843)"/></g></g></g></g></g></g></g><g clip-path="url(#clip5)"><g clip-path="url(#clip6)"><g clip-path="url(#clip7)"><g clip-path="url(#clip8)"><g clip-path="url(#clip9)"><path d="M47.6143 23.4913C47.434 16.6025 47.3441 13.1581 48.3233 10.409 49.8545 6.11044 53.1838 2.69303 57.4406 1.05003 60.1633-0.000717161 63.609-0.000717161 70.5-0.000717161 77.4619-0.000717165 83.4871 12.2496 87.5463 29.3113 89.4072 37.1333 90.3377 41.0442 87.9855 44.0217 85.6333 46.9993 81.364 46.9993 72.825 46.9993L63.6457 46.9993C54.4928 46.9993 50.1259 48.981 48.5873 60.7148L47.6143 23.4913Z" fill="url(#fill10)" transform="matrix(1 0 0 1.01064 593 243)"/><path d="M47.6143 23.4913C47.434 16.6025 47.3441 13.1581 48.3233 10.409 49.8545 6.11044 53.1838 2.69303 57.4406 1.05003 60.1633-0.000717161 63.609-0.000717161 70.5-0.000717161 77.4619-0.000717165 83.4871 12.2496 87.5463 29.3113 89.4072 37.1333 90.3377 41.0442 87.9855 44.0217 85.6333 46.9993 81.364 46.9993 72.825 46.9993L63.6457 46.9993C54.4928 46.9993 50.1259 48.981 48.5873 60.7148L47.6143 23.4913Z" fill="url(#fill11)" transform="matrix(1 -4.72435e-18 4.72435e-18 1.01064 593 243)"/><path d="M54.3438 74.1711C54.3438 63.2205 63.2212 54.343 74.1719 54.343 85.1225 54.343 94 63.2205 94 74.1711 94 85.1218 85.1225 93.9993 74.1719 93.9993 63.2212 93.9993 54.3438 85.1218 54.3438 74.1711Z" fill="url(#fill12)" transform="matrix(1 0 0 1.01064 593 243)"/><path d="M54.3438 74.1711C54.3438 63.2205 63.2212 54.343 74.1719 54.343 85.1225 54.343 94 63.2205 94 74.1711 94 85.1218 85.1225 93.9993 74.1719 93.9993 63.2212 93.9993 54.3438 85.1218 54.3438 74.1711Z" fill="url(#fill13)" transform="matrix(1 0 0 1.01064 593 243)"/><path d="M47-0.000717161C24.8065-0.000717161 6.75324 31.0505 1.52893 70.5621 0.16907 80.8466-0.510861 85.9891 2.99959 89.994 6.51005 93.9993 12.1734 93.9993 23.5 93.9993 34.4033 93.9993 39.8549 93.9993 43.2415 90.837 46.6277 87.6745 47.0195 81.9537 47.8027 70.5121 50.4038 32.5213 59.097-0.000717161 70.5-0.000717161L47-0.000717161Z" fill="url(#fill14)" transform="matrix(1 0 0 1.01064 593 243)"/><path d="M47-0.000717161C24.8065-0.000717161 6.75324 31.0505 1.52893 70.5621 0.16907 80.8466-0.510861 85.9891 2.99959 89.994 6.51005 93.9993 12.1734 93.9993 23.5 93.9993 34.4033 93.9993 39.8549 93.9993 43.2415 90.837 46.6277 87.6745 47.0195 81.9537 47.8027 70.5121 50.4038 32.5213 59.097-0.000717161 70.5-0.000717161L47-0.000717161Z" fill="url(#fill15)" transform="matrix(1 0 0 1.01064 593 243)"/></g></g></g></g></g></g></svg>