<svg width="39" height="38" xmlns="http://www.w3.org/2000/svg" xmlns:xlink="http://www.w3.org/1999/xlink" xml:space="preserve" overflow="hidden"><defs><filter id="fx0" x="-10%" y="-10%" width="120%" height="120%" filterUnits="userSpaceOnUse" primitiveUnits="userSpaceOnUse"><feComponentTransfer color-interpolation-filters="sRGB"><feFuncR type="discrete" tableValues="0 0"/><feFuncG type="discrete" tableValues="0 0"/><feFuncB type="discrete" tableValues="0 0"/><feFuncA type="linear" slope="0.4" intercept="0"/></feComponentTransfer><feGaussianBlur stdDeviation="1.77778 1.77778"/></filter><clipPath id="clip1"><rect x="38" y="287" width="39" height="38"/></clipPath><clipPath id="clip2"><rect x="41" y="290" width="27" height="26"/></clipPath><clipPath id="clip3"><rect x="41" y="290" width="27" height="26"/></clipPath><clipPath id="clip4"><rect x="41" y="290" width="27" height="26"/></clipPath><radialGradient cx="7.957" cy="7.925" r="7.985" gradientUnits="userSpaceOnUse" spreadMethod="pad" id="fill5" gradientTransform="scale(1.44444 1.44444)"><stop offset="0" stop-color="#5EA0EF"/><stop offset="0.18" stop-color="#5EA0EF"/><stop offset="1" stop-color="#0078D4"/></radialGradient><linearGradient x1="5.28813" y1="14.82" x2="5.24621" y2="9.46118" gradientUnits="userSpaceOnUse" spreadMethod="pad" id="fill6"><stop offset="0" stop-color="#CCCCCC"/><stop offset="1" stop-color="#FCFCFC"/></linearGradient><linearGradient x1="20.5848" y1="27.9298" x2="20.5848" y2="14.9067" gradientUnits="userSpaceOnUse" spreadMethod="pad" id="fill7"><stop offset="0" stop-color="#5E9624"/><stop offset="0.999" stop-color="#76BC2D"/><stop offset="1" stop-color="#76BC2D"/></linearGradient></defs><g clip-path="url(#clip1)" transform="translate(-38 -287)"><g filter="url(#fx0)" transform="translate(37 286)"><g><g><g><g><path d="M14.6264 19.058 14.6264 14.8373C14.6322 14.3563 15.0136 13.975 15.4873 13.9678 17.1022 13.9244 17.6092 13.5706 18.1466 13.1964 18.6839 12.8223 19.2386 12.4352 20.5848 12.4352 21.7793 12.4352 22.3513 12.74 22.8396 13.0708 23.2238 10.205 22.5391 7.19478 20.696 4.69156 16.9202-0.436222 9.70811-1.52967 4.58756 2.25044L4.46333 2.33278C-0.566222 6.23711-1.482 13.4853 2.41656 18.5207 5.60444 22.6373 11.0226 23.998 15.6433 22.2242 15.0424 21.2723 14.6264 20.2049 14.6264 19.058Z" fill="#FF0000" transform="matrix(1.03846 0 0 1 6.82843 6.82843)"/><path d="M8.39078 9.048C11.6494 5.94533 15.9683 4.20767 20.4649 4.19033 19.8727 3.458 19.1938 2.80222 18.4412 2.23744 16.2543 2.37322 14.105 2.87733 12.0857 3.72956 10.0086 4.62367 8.12933 5.92511 6.56067 7.55589 7.31611 7.84333 7.95744 8.36622 8.39078 9.048Z" fill="#FFFFFF" fill-opacity="0.6" transform="matrix(1.03846 0 0 1 6.82843 6.82843)"/><path d="M2.68522 13.6904C2.21578 14.8446 1.83733 16.0319 1.55133 17.2452 1.80267 17.68 2.08433 18.0974 2.39489 18.4932 2.62889 18.7994 2.87733 19.0941 3.14022 19.3758 3.46811 17.7609 3.95778 16.1821 4.60344 14.6669 3.88267 14.5369 3.21533 14.1974 2.68378 13.6904Z" fill="#FFFFFF" fill-opacity="0.6" transform="matrix(1.03846 0 0 1 6.82843 6.82843)"/><path d="M4.01267 7.52844C3.53456 6.24289 3.21967 4.90244 3.07811 3.53889 2.509 4.13689 2.00778 4.797 1.58744 5.50767 1.74056 6.60689 1.99911 7.68733 2.36022 8.736 2.78489 8.18422 3.35833 7.76533 4.01267 7.52844Z" fill="#F2F2F2" fill-opacity="0.55" transform="matrix(1.03846 0 0 1 6.82843 6.82843)"/><path d="M8.95844 11.0153C8.95844 13.0584 7.30225 14.7146 5.25922 14.7146 3.2162 14.7146 1.56 13.0584 1.56 11.0153 1.56 8.97231 3.2162 7.31611 5.25922 7.31611 7.30225 7.31611 8.95844 8.97231 8.95844 11.0153Z" fill="#FF0000" transform="matrix(1.03846 0 0 1 6.82843 6.82843)"/><path d="M10.6586 17.7883C10.6586 17.1383 10.9229 16.5158 11.3909 16.0651 10.1414 15.3804 8.98733 14.5311 7.96033 13.5402 7.423 14.1223 6.71378 14.5167 5.93667 14.6669 6.54911 15.2938 7.20633 15.8744 7.90256 16.4046 8.77067 17.0574 9.70089 17.6237 10.6802 18.0931 10.6672 17.992 10.6586 17.8909 10.6586 17.7898Z" fill="#F2F2F2" fill-opacity="0.55" transform="matrix(1.03846 0 0 1 6.82843 6.82843)"/><path d="M16.0189 11.3548C16.1402 10.8261 16.4306 10.3523 16.8466 10.0042 14.6134 8.37778 12.584 6.48989 10.8016 4.37956 9.763 3.159 8.85444 1.83156 8.09178 0.420333 7.58622 0.572 7.09222 0.762667 6.61411 0.989444 7.43022 2.52633 8.40667 3.97222 9.52756 5.304 11.4328 7.58333 13.6124 9.61567 16.0189 11.3548Z" fill="#F2F2F2" fill-opacity="0.7" transform="matrix(1.03846 0 0 1 6.82843 6.82843)"/><path d="M8.95844 11.0153C8.95844 13.0584 7.30225 14.7146 5.25922 14.7146 3.2162 14.7146 1.56 13.0584 1.56 11.0153 1.56 8.97231 3.2162 7.31611 5.25922 7.31611 7.30225 7.31611 8.95844 8.97231 8.95844 11.0153Z" fill="#FCFCFC" transform="matrix(1.03846 0 0 1 6.82843 6.82843)"/><path d="M14.6264 19.058 14.6264 15.9727C14.2032 15.6043 13.6572 15.3732 13.052 15.3732 11.7202 15.3732 10.6412 16.4537 10.6412 17.7883 10.6412 19.123 11.7202 20.2034 13.052 20.2034 13.6746 20.2034 14.2364 19.9608 14.664 19.5722 14.6452 19.4018 14.6264 19.2328 14.6264 19.0594Z" fill="#FCFCFC" transform="matrix(1.03846 0 0 1 6.82843 6.82843)"/><path d="M16.9289 13.7944C17.4966 13.6471 17.8172 13.4261 18.1466 13.1964 18.6839 12.8223 19.2386 12.4352 20.5848 12.4352 20.7379 12.4352 20.8794 12.441 21.0138 12.4511 21.0658 12.2474 21.1019 12.0366 21.1019 11.817 21.1019 10.4 19.955 9.25167 18.5409 9.25167 17.1268 9.25167 15.9799 10.4 15.9799 11.817 15.9799 12.6187 16.3554 13.325 16.9303 13.7959Z" fill="#FCFCFC" transform="matrix(1.03846 0 0 1 6.82843 6.82843)"/><path d="M25.6678 14.5109C22.321 14.4228 23.0923 12.9769 20.5848 12.9769 18.0772 12.9769 18.8471 14.4228 15.5018 14.5109 15.3183 14.5138 15.171 14.6611 15.1696 14.8446L15.1696 19.058C15.1696 22.5593 19.4711 25.3818 20.4071 25.9509 20.5169 26.0173 20.6541 26.0173 20.7639 25.9509 21.6984 25.3789 26.0014 22.5593 26.0014 19.058L26.0014 14.8446C25.9986 14.6611 25.8512 14.5138 25.6692 14.5109Z" fill="#FF0000" transform="matrix(1.03846 0 0 1 6.82843 6.82843)"/><path d="M23.0764 18.4643 23.0808 18.4614C23.0331 18.4196 22.9739 18.3964 22.9103 18.3964L22.5319 18.3964 22.5319 17.2236C22.5348 16.6718 22.3326 16.1388 21.9642 15.7271 21.6118 15.3154 21.0932 15.0814 20.5516 15.0916 20.0099 15.0843 19.4942 15.3169 19.1403 15.7271 18.7691 16.1359 18.5654 16.6703 18.5712 17.2236L18.5712 18.3964 18.265 18.3964C18.2477 18.3964 18.2332 18.4037 18.2173 18.4066 18.2029 18.4094 18.1899 18.4094 18.1769 18.4152 18.0758 18.4528 18.0021 18.5467 18.0007 18.6608L18.0007 21.6898C18.0007 21.7172 18.0093 21.7418 18.0166 21.7649 18.0166 21.7649 18.0166 21.7649 18.0166 21.7649 18.0209 21.7764 18.0238 21.7894 18.0281 21.7996 18.044 21.84 18.0686 21.8776 18.1032 21.9064L18.1148 21.8978C18.1581 21.9281 18.2072 21.9498 18.2636 21.9512L22.8973 21.9512C22.958 21.9512 23.01 21.9267 23.0548 21.892L23.075 21.9064C23.1342 21.8573 23.1689 21.7837 23.1703 21.7071L23.1703 18.6608C23.1703 18.5813 23.1313 18.512 23.0764 18.4643ZM19.4913 17.2033C19.4942 16.8986 19.6112 16.6053 19.8221 16.3829 20.163 15.9857 20.761 15.9394 21.1582 16.2803 21.1943 16.3121 21.229 16.3468 21.2608 16.3829 21.307 16.4334 21.3474 16.4898 21.3836 16.5476 21.5266 16.7368 21.606 16.965 21.6132 17.2033L21.6132 18.395C21.6132 18.395 19.4913 18.395 19.4913 18.395L19.4913 17.2033Z" fill="#FFFFFF" transform="matrix(1.03846 0 0 1 6.82843 6.82843)"/></g></g></g></g></g><g clip-path="url(#clip2)"><g clip-path="url(#clip3)"><g clip-path="url(#clip4)"><path d="M14.6264 19.058 14.6264 14.8373C14.6322 14.3563 15.0136 13.975 15.4873 13.9678 17.1022 13.9244 17.6092 13.5706 18.1466 13.1964 18.6839 12.8223 19.2386 12.4352 20.5848 12.4352 21.7793 12.4352 22.3513 12.74 22.8396 13.0708 23.2238 10.205 22.5391 7.19478 20.696 4.69156 16.9202-0.436222 9.70811-1.52967 4.58756 2.25044L4.46333 2.33278C-0.566222 6.23711-1.482 13.4853 2.41656 18.5207 5.60444 22.6373 11.0226 23.998 15.6433 22.2242 15.0424 21.2723 14.6264 20.2049 14.6264 19.058Z" fill="url(#fill5)" transform="matrix(1.03846 0 0 1 41 290)"/><path d="M8.39078 9.048C11.6494 5.94533 15.9683 4.20767 20.4649 4.19033 19.8727 3.458 19.1938 2.80222 18.4412 2.23744 16.2543 2.37322 14.105 2.87733 12.0857 3.72956 10.0086 4.62367 8.12933 5.92511 6.56067 7.55589 7.31611 7.84333 7.95744 8.36622 8.39078 9.048Z" fill="#FFFFFF" fill-opacity="0.6" transform="matrix(1.03846 0 0 1 41 290)"/><path d="M2.68522 13.6904C2.21578 14.8446 1.83733 16.0319 1.55133 17.2452 1.80267 17.68 2.08433 18.0974 2.39489 18.4932 2.62889 18.7994 2.87733 19.0941 3.14022 19.3758 3.46811 17.7609 3.95778 16.1821 4.60344 14.6669 3.88267 14.5369 3.21533 14.1974 2.68378 13.6904Z" fill="#FFFFFF" fill-opacity="0.6" transform="matrix(1.03846 0 0 1 41 290)"/><path d="M4.01267 7.52844C3.53456 6.24289 3.21967 4.90244 3.07811 3.53889 2.509 4.13689 2.00778 4.797 1.58744 5.50767 1.74056 6.60689 1.99911 7.68733 2.36022 8.736 2.78489 8.18422 3.35833 7.76533 4.01267 7.52844Z" fill="#F2F2F2" fill-opacity="0.55" transform="matrix(1.03846 0 0 1 41 290)"/><path d="M8.95844 11.0153C8.95844 13.0584 7.30225 14.7146 5.25922 14.7146 3.2162 14.7146 1.56 13.0584 1.56 11.0153 1.56 8.97231 3.2162 7.31611 5.25922 7.31611 7.30225 7.31611 8.95844 8.97231 8.95844 11.0153Z" fill="url(#fill6)" transform="matrix(1.03846 0 0 1 41 290)"/><path d="M10.6586 17.7883C10.6586 17.1383 10.9229 16.5158 11.3909 16.0651 10.1414 15.3804 8.98733 14.5311 7.96033 13.5402 7.423 14.1223 6.71378 14.5167 5.93667 14.6669 6.54911 15.2938 7.20633 15.8744 7.90256 16.4046 8.77067 17.0574 9.70089 17.6237 10.6802 18.0931 10.6672 17.992 10.6586 17.8909 10.6586 17.7898Z" fill="#F2F2F2" fill-opacity="0.55" transform="matrix(1.03846 0 0 1 41 290)"/><path d="M16.0189 11.3548C16.1402 10.8261 16.4306 10.3523 16.8466 10.0042 14.6134 8.37778 12.584 6.48989 10.8016 4.37956 9.763 3.159 8.85444 1.83156 8.09178 0.420333 7.58622 0.572 7.09222 0.762667 6.61411 0.989444 7.43022 2.52633 8.40667 3.97222 9.52756 5.304 11.4328 7.58333 13.6124 9.61567 16.0189 11.3548Z" fill="#F2F2F2" fill-opacity="0.7" transform="matrix(1.03846 0 0 1 41 290)"/><path d="M8.95844 11.0153C8.95844 13.0584 7.30225 14.7146 5.25922 14.7146 3.2162 14.7146 1.56 13.0584 1.56 11.0153 1.56 8.97231 3.2162 7.31611 5.25922 7.31611 7.30225 7.31611 8.95844 8.97231 8.95844 11.0153Z" fill="#FCFCFC" transform="matrix(1.03846 0 0 1 41 290)"/><path d="M14.6264 19.058 14.6264 15.9727C14.2032 15.6043 13.6572 15.3732 13.052 15.3732 11.7202 15.3732 10.6412 16.4537 10.6412 17.7883 10.6412 19.123 11.7202 20.2034 13.052 20.2034 13.6746 20.2034 14.2364 19.9608 14.664 19.5722 14.6452 19.4018 14.6264 19.2328 14.6264 19.0594Z" fill="#FCFCFC" transform="matrix(1.03846 0 0 1 41 290)"/><path d="M16.9289 13.7944C17.4966 13.6471 17.8172 13.4261 18.1466 13.1964 18.6839 12.8223 19.2386 12.4352 20.5848 12.4352 20.7379 12.4352 20.8794 12.441 21.0138 12.4511 21.0658 12.2474 21.1019 12.0366 21.1019 11.817 21.1019 10.4 19.955 9.25167 18.5409 9.25167 17.1268 9.25167 15.9799 10.4 15.9799 11.817 15.9799 12.6187 16.3554 13.325 16.9303 13.7959Z" fill="#FCFCFC" transform="matrix(1.03846 0 0 1 41 290)"/><path d="M25.6678 14.5109C22.321 14.4228 23.0923 12.9769 20.5848 12.9769 18.0772 12.9769 18.8471 14.4228 15.5018 14.5109 15.3183 14.5138 15.171 14.6611 15.1696 14.8446L15.1696 19.058C15.1696 22.5593 19.4711 25.3818 20.4071 25.9509 20.5169 26.0173 20.6541 26.0173 20.7639 25.9509 21.6984 25.3789 26.0014 22.5593 26.0014 19.058L26.0014 14.8446C25.9986 14.6611 25.8512 14.5138 25.6692 14.5109Z" fill="url(#fill7)" transform="matrix(1.03846 0 0 1 41 290)"/><path d="M23.0764 18.4643 23.0808 18.4614C23.0331 18.4196 22.9739 18.3964 22.9103 18.3964L22.5319 18.3964 22.5319 17.2236C22.5348 16.6718 22.3326 16.1388 21.9642 15.7271 21.6118 15.3154 21.0932 15.0814 20.5516 15.0916 20.0099 15.0843 19.4942 15.3169 19.1403 15.7271 18.7691 16.1359 18.5654 16.6703 18.5712 17.2236L18.5712 18.3964 18.265 18.3964C18.2477 18.3964 18.2332 18.4037 18.2173 18.4066 18.2029 18.4094 18.1899 18.4094 18.1769 18.4152 18.0758 18.4528 18.0021 18.5467 18.0007 18.6608L18.0007 21.6898C18.0007 21.7172 18.0093 21.7418 18.0166 21.7649 18.0166 21.7649 18.0166 21.7649 18.0166 21.7649 18.0209 21.7764 18.0238 21.7894 18.0281 21.7996 18.044 21.84 18.0686 21.8776 18.1032 21.9064L18.1148 21.8978C18.1581 21.9281 18.2072 21.9498 18.2636 21.9512L22.8973 21.9512C22.958 21.9512 23.01 21.9267 23.0548 21.892L23.075 21.9064C23.1342 21.8573 23.1689 21.7837 23.1703 21.7071L23.1703 18.6608C23.1703 18.5813 23.1313 18.512 23.0764 18.4643ZM19.4913 17.2033C19.4942 16.8986 19.6112 16.6053 19.8221 16.3829 20.163 15.9857 20.761 15.9394 21.1582 16.2803 21.1943 16.3121 21.229 16.3468 21.2608 16.3829 21.307 16.4334 21.3474 16.4898 21.3836 16.5476 21.5266 16.7368 21.606 16.965 21.6132 17.2033L21.6132 18.395C21.6132 18.395 19.4913 18.395 19.4913 18.395L19.4913 17.2033Z" fill="#FFFFFF" transform="matrix(1.03846 0 0 1 41 290)"/></g></g></g></g></svg>