<svg width="97" height="96" xmlns="http://www.w3.org/2000/svg" xmlns:xlink="http://www.w3.org/1999/xlink" xml:space="preserve" overflow="hidden"><defs><linearGradient x1="12" y1="6" x2="76.2528" y2="6.91956" gradientUnits="userSpaceOnUse" spreadMethod="pad" id="fill0"><stop offset="0" stop-color="#457BB9"/><stop offset="1" stop-color="#0E4775"/></linearGradient><linearGradient x1="86.1267" y1="75.2058" x2="41.0301" y2="72.2484" gradientUnits="userSpaceOnUse" spreadMethod="pad" id="fill1"><stop offset="0" stop-color="#1884BA"/><stop offset="1" stop-color="#42C3EB"/></linearGradient><linearGradient x1="93.1356" y1="62.2725" x2="67.6137" y2="19.9791" gradientUnits="userSpaceOnUse" spreadMethod="pad" id="fill2"><stop offset="0" stop-color="#40AEE4"/><stop offset="1" stop-color="#94E4FD"/></linearGradient><linearGradient x1="66" y1="27" x2="62.4684" y2="9.5889" gradientUnits="userSpaceOnUse" spreadMethod="pad" id="fill3"><stop offset="0" stop-color="#1091D1"/><stop offset="1" stop-color="#42C3EB"/></linearGradient></defs><g transform="translate(-83 -406)"><path d="M75 15.7495C75 10.3647 70.7265 5.99946 65.4546 5.99946L21.5454 6C16.2736 6 12 10.3652 12 15.75L12 72C12 78.15 15.4443 84 21.5454 84L56.7615 84C57.0522 84 57.3549 83.9754 57.6684 83.9283 57.9852 83.9754 58.3173 84 58.6653 84L71.2086 83.9994C74.5554 83.9994 75 81.8937 75 81.0141L75 15.7495Z" fill="#5C92CA" transform="matrix(1.01042 0 0 1 83 406)"/><path d="M21.5455 6C16.2737 6 12 10.3652 12 15.75L12 72C12 78.15 15.4444 84 21.5455 84L72.1365 84C73.7178 84 75 82.6905 75 81.075 75 79.4595 73.7178 78.15 72.1365 78.15L21.4166 78.15C19.5625 78.15 18 75.8064 18 73.7607 18 72.8004 18 72.3621 18 72L72.1365 72C73.7178 72 75 70.6155 75 69L75 15.75C75 10.3652 70.7265 6 65.4546 6L21.5455 6ZM24.7801 18 62.22 18C64.3077 18 66 20.0147 66 22.5 66 24.9853 64.3077 27 62.22 27L24.7801 27C22.6924 27 21 24.9853 21 22.5 21 20.0147 22.6924 18 24.7801 18Z" fill="url(#fill0)" fill-rule="evenodd" transform="matrix(1.01042 0 0 1 83 406)"/><path d="M70.6995 36.2391C72.681 36.5931 74.541 37.0974 76.2366 37.728 82.1961 39.9441 86.1201 43.7181 86.1201 48.0015 86.1201 48.0081 86.1201 48.015 86.1201 48.0216 86.1246 48.129 86.1267 48.2379 86.1267 48.348 86.124 54.1734 86.1201 73.179 86.1201 77.6466 86.1201 84.4692 76.1646 89.9997 63.8841 89.9997 51.6036 89.9997 41.6481 84.4692 41.6481 77.6466L41.6481 48.3537C41.6481 48.2967 41.649 48.2403 41.6505 48.1842 41.649 48.1233 41.6481 48.0624 41.6481 48.0015 41.6481 41.1789 51.6036 35.6481 63.8841 35.6481 66.2616 35.6481 68.5518 35.8554 70.6995 36.2391Z" fill="url(#fill1)" transform="matrix(1.01042 0 0 1 83 406)"/><path d="M76.2366 37.728C74.541 37.0974 72.681 36.5931 70.6995 36.2391 68.5518 35.8554 66.2616 35.6481 63.8841 35.6481 51.6036 35.6481 41.6481 41.1789 41.6481 48.0015 41.6481 54.8241 51.6036 60.3549 63.8841 60.3549 76.1646 60.3549 86.1201 54.8241 86.1201 48.0015 86.1201 43.7181 82.1961 39.9441 76.2366 37.728Z" fill="url(#fill2)" transform="matrix(1.01042 0 0 1 83 406)"/><path d="M24.7801 18 62.22 18C64.3077 18 66 20.0147 66 22.5 66 24.9853 64.3077 27 62.22 27L24.7801 27C22.6924 27 21 24.9853 21 22.5 21 20.0147 22.6924 18 24.7801 18Z" fill="url(#fill3)" transform="matrix(1.01042 0 0 1 83 406)"/></g></svg>