<svg width="95" height="83" xmlns="http://www.w3.org/2000/svg" xmlns:xlink="http://www.w3.org/1999/xlink" xml:space="preserve" overflow="hidden"><defs><clipPath id="clip0"><rect x="85" y="1211" width="95" height="83"/></clipPath></defs><g clip-path="url(#clip0)" transform="translate(-85 -1211)"><path d="M0 0 20.75 0 20.75 20.75 0 20.75 0 0ZM0 25.9375 20.75 25.9375 20.75 46.6875 0 46.6875 0 25.9375ZM0 51.875 20.75 51.875 20.75 72.625 0 72.625 0 51.875ZM25.9375 0 46.6875 0 46.6875 20.75 25.9375 20.75 25.9375 0ZM51.875 0 72.625 0 72.625 20.75 51.875 20.75 51.875 0ZM38.9071 62.8244 38.9071 51.875 25.9375 51.875 25.9375 72.625 44.4648 72.625C41.2676 69.2187 38.9071 65.6995 38.9071 62.8244ZM38.9071 31.3026 41.3838 31.1914C43.1608 31.0988 44.9314 30.908 46.6875 30.6204L46.6875 25.9392 25.9375 25.9392 25.9375 46.6892 38.9071 46.6892 38.9071 31.3026ZM58.5831 25.9375 51.875 25.9375 51.875 29.392C54.3268 28.6201 56.7073 27.5195 58.5831 25.9375ZM72.625 29.3903 72.625 25.9375 65.9269 25.9375C67.8077 27.5178 70.1815 28.6167 72.625 29.3903Z" fill="#2072B8" fill-rule="evenodd" transform="matrix(1.14458 0 0 1 85 1211)"/><path d="M62.2649 83C59.5127 82.4588 41.5 69.3266 41.5 62.8244L41.5 33.7827C45.3396 33.6117 57.0542 32.5443 62.2533 25.9375 67.4823 32.5493 79.1671 33.6117 83 33.7827L83 62.8227C83 72.0141 64.6072 82.6531 62.2649 83Z" fill="#7FBA42" transform="matrix(1.14458 0 0 1 85 1211)"/><path d="M46.387 70.9633C43.2247 67.6251 41.5 64.7632 41.5 62.8244L41.5 33.7827C45.3396 33.6117 57.0525 32.5443 62.2517 25.9392 64.3848 28.6466 67.8044 30.7 72.4573 32.0712L46.387 70.9633Z" fill="#FFFFFF" fill-opacity="0.17" transform="matrix(1.14458 0 0 1 85 1211)"/></g></svg>