<svg width="349" height="408" xmlns="http://www.w3.org/2000/svg" xmlns:xlink="http://www.w3.org/1999/xlink" xml:space="preserve" overflow="hidden"><defs><clipPath id="clip0"><rect x="251" y="32672" width="349" height="408"/></clipPath><linearGradient x1="425.5" y1="32672" x2="425.5" y2="33080" gradientUnits="userSpaceOnUse" spreadMethod="reflect" id="fill1"><stop offset="0" stop-color="#32D4F5"/><stop offset="0.22" stop-color="#32D4F5"/><stop offset="1" stop-color="#198AB3"/></linearGradient></defs><g clip-path="url(#clip0)" transform="translate(-251 -32672)"><path d="M375.617 32870.7C375.617 32876.9 375.081 32883.4 374.008 32890.1 372.935 32896.8 371.148 32903 368.644 32908.6 366.141 32914.3 362.744 32918.9 358.453 32922.3 354.162 32925.7 348.799 32927.6 342.362 32927.9 340.217 32927.9 338.071 32927.8 335.926 32927.6 333.78 32927.5 331.635 32927.4 329.489 32927.2L329.489 32818.4C331.873 32818.2 334.197 32818.1 336.462 32818 338.727 32817.8 341.111 32817.7 343.614 32817.7 349.693 32817.7 354.758 32819.3 358.811 32822.4 362.863 32825.6 366.201 32829.8 368.823 32835 371.445 32840.3 373.174 32846 374.008 32852.1 374.843 32858.2 375.379 32864.4 375.617 32870.7ZM251 32715.7 456.967 32672 456.967 33080 251 33037.5 251 32715.7ZM306.783 32956.7C313.577 32957.2 320.371 32957.9 327.165 32958.6 333.959 32959.3 340.753 32959.7 347.547 32959.9 357.798 32959.9 366.44 32957.2 373.472 32951.8 380.504 32946.3 386.285 32939.2 390.815 32930.4 395.344 32921.6 398.502 32911.9 400.29 32901.4 402.078 32890.9 403.091 32880.3 403.33 32869.8 403.33 32859 402.555 32848.5 401.006 32838.4 399.456 32828.3 396.715 32819.3 392.781 32811.3 388.848 32803.4 383.424 32797 376.511 32792.4 369.598 32787.7 360.897 32785.2 350.408 32785.1 343.137 32785.1 335.866 32785.6 328.595 32786.6 321.324 32787.6 314.054 32788.5 306.783 32789.4L306.783 32956.7ZM490.937 32876.2C490.937 32879.9 490.342 32883.4 489.15 32886.7 487.957 32889.9 486.348 32892.8 484.322 32895.2 482.297 32897.6 479.911 32899.5 477.171 32901 474.43 32902.4 471.508 32903.1 468.41 32903.1L468.41 32849.1C471.508 32849.1 474.43 32849.8 477.171 32851.2 479.911 32852.7 482.297 32854.6 484.322 32857 486.348 32859.4 487.957 32862.3 489.15 32865.8 490.342 32869.2 490.937 32872.7 490.937 32876.2ZM600 32894.1 588.915 32945.1 551.369 32939.2C549.343 32942.9 547.257 32946.4 545.111 32949.8 542.966 32953.2 540.582 32956.5 537.96 32959.6L551.011 33000 512.929 33026.7 490.223 32991.2C483.071 32993.1 475.799 32994.1 468.41 32994.4L468.41 32949.8C476.872 32949.8 484.858 32947.9 492.368 32944.1 499.877 32940.2 506.433 32935 512.035 32928.5 517.636 32921.9 522.047 32914.1 525.265 32905 528.484 32895.9 530.093 32886.4 530.093 32876.4 530.093 32866.3 528.484 32856.8 525.265 32847.8 522.047 32838.9 517.636 32831 512.035 32824.4 506.433 32817.7 499.877 32812.4 492.368 32808.6 484.858 32804.7 476.872 32802.8 468.41 32802.8L468.41 32757.1 469.304 32757.1 483.428 32719.2 525.981 32732.6 521.153 32775.9C527.47 32780.8 533.37 32786.4 538.853 32793L572.109 32777.8 594.279 32823.3 564.6 32850.4C565.314 32854.4 565.851 32858.4 566.209 32862.3 566.566 32866.3 566.804 32870.4 566.924 32874.5L566.924 32876.6 600 32894.1Z" fill="url(#fill1)" fill-rule="evenodd"/></g></svg>