<svg width="91" height="93" xmlns="http://www.w3.org/2000/svg" xmlns:xlink="http://www.w3.org/1999/xlink" xml:space="preserve" overflow="hidden"><g transform="translate(-83 -3146)"><path d="M68.2482 91 17.0625 91C13.9214 91 11.375 88.4536 11.375 85.3125L11.375 5.6875C11.375 2.54638 13.9214 -8.08242e-16 17.0625 -8.08242e-16L68.2482 0C71.3893 -8.08242e-16 73.9357 2.54638 73.9357 5.6875L73.9357 85.3125C73.9357 88.4536 71.3893 91 68.2482 91Z" fill="#1D1D1D" transform="matrix(1 0 0 1.02198 83 3146)"/><path d="M17.0625 5.6875 68.2482 5.6875 68.2482 79.625 17.0625 79.625Z" fill="#5AB3D9" transform="matrix(1 0 0 1.02198 83 3146)"/><path d="M68.2482 79.625 17.0625 79.625 17.0625 68.2482 68.2482 25.8513Z" fill="#3898C6" transform="matrix(1 0 0 1.02198 83 3146)"/><path d="M62.5607 11.375 62.5607 73.9375 22.75 73.9375 22.75 11.375 62.5607 11.375M68.2482 5.6875 17.0625 5.6875 17.0625 79.625 68.2482 79.625 68.2482 5.6875Z" fill="#FFFFFF" fill-opacity="0.4" transform="matrix(1 0 0 1.02198 83 3146)"/><path d="M34.1232 79.625 51.1857 79.625 51.1857 85.3125 34.1232 85.3125Z" fill="#E4E4E4" transform="matrix(1 0 0 1.02198 83 3146)"/></g></svg>