<svg width="115" height="117" xmlns="http://www.w3.org/2000/svg" xmlns:xlink="http://www.w3.org/1999/xlink" xml:space="preserve" overflow="hidden"><defs><clipPath id="clip0"><rect x="81" y="6143" width="115" height="117"/></clipPath><linearGradient x1="41.3297" y1="50.8492" x2="41.3297" y2="119.472" gradientUnits="userSpaceOnUse" spreadMethod="pad" id="fill1"><stop offset="0" stop-color="#50E6FF"/><stop offset="0.225" stop-color="#50E6FF"/><stop offset="1" stop-color="#198AB3"/></linearGradient><linearGradient x1="39.5919" y1="14.0619" x2="44.6008" y2="76.3664" gradientUnits="userSpaceOnUse" spreadMethod="pad" id="fill2"><stop offset="0" stop-color="#50E6FF"/><stop offset="0.225" stop-color="#50E6FF"/><stop offset="1" stop-color="#198AB3"/></linearGradient></defs><g clip-path="url(#clip0)" transform="translate(-81 -6143)"><path d="M75.2803 107.084C79.3379 107.098 82.639 103.82 82.6531 99.7625 82.6531 99.7625 82.6531 99.7625 82.6531 99.7625 82.655 99.4654 82.6384 99.169 82.6019 98.8744 79.7142 75.7786 66.5339 56.9633 41.3936 56.9633 15.8381 56.9633 2.61306 72.8908 0.0383333 98.9383-0.374632 102.997 2.5747 106.623 6.63167 107.046 6.87789 107.071 7.12527 107.084 7.37278 107.084Z" fill="url(#fill1)" transform="matrix(1 0 0 1.01739 81 6143)"/><path d="M41.7897 62.4386C37.3411 62.4575 32.9825 61.1859 29.2419 58.7778L41.6619 91.2333 53.9989 58.9631C50.3347 61.2414 46.1045 62.4456 41.7897 62.4386Z" fill="#FFFFFF" fill-opacity="0.8" transform="matrix(1 0 0 1.01739 81 6143)"/><path d="M64.7961 39.2661C64.7961 52.0675 54.4186 62.445 41.6172 62.445 28.8159 62.445 18.4383 52.0675 18.4383 39.2661 18.4383 26.4648 28.8159 16.0872 41.6172 16.0872 54.4186 16.0872 64.7961 26.4648 64.7961 39.2661Z" fill="url(#fill2)" transform="matrix(1 0 0 1.01739 81 6143)"/><path d="M115 55.0147 115 45.5336 113.671 45.0353 103.5 41.7067 100.842 35.2219 106.056 24.2778 99.3664 17.595 98.0375 18.2339 88.5628 23.0511 82.0781 20.4444 77.9444 8.94444 68.4378 8.94444 67.9394 10.2733 64.6172 20.4444 58.1708 23.0894C61.3282 26.3061 63.4738 30.3774 64.3425 34.8003 73.0544 29.7702 84.1941 32.7549 89.2247 41.4667 94.2546 50.1785 91.2697 61.3186 82.5579 66.3486 79.7825 67.9516 76.6328 68.793 73.4275 68.7892 72.0481 68.777 70.6745 68.6096 69.3322 68.2908 74.3469 73.6926 78.0237 80.1965 80.0656 87.2786L82.2442 80.6406 88.7289 77.9764 99.6986 83.1322 106.356 76.4814 105.717 75.1525 100.9 65.6714 103.5 59.1675Z" fill="#0078D4" transform="matrix(1 0 0 1.01739 81 6143)"/></g></svg>