<svg width="107" height="106" xmlns="http://www.w3.org/2000/svg" xmlns:xlink="http://www.w3.org/1999/xlink" xml:space="preserve" overflow="hidden"><g transform="translate(-73 -2147)"><path d="M15.9 31.8C15.9 23.0187 23.0187 15.9 31.8 15.9L74.2 15.9C82.9816 15.9 90.1 23.0187 90.1 31.8L90.1 49.8253C82.495 45.4346 72.7711 48.0403 68.3801 55.6452 66.9841 58.0636 66.2489 60.8074 66.25 63.6L58.3 63.6C56.8367 63.6 55.65 64.7867 55.65 66.25 55.65 67.7133 56.8367 68.9 58.3 68.9L67.151 68.9C67.8527 70.878 68.9387 72.6969 70.3469 74.253 63.5232 74.8752 58.2989 80.5976 58.3 87.45 58.3 88.3351 58.3689 89.2202 58.5014 90.1L31.8 90.1C23.0187 90.1 15.9 82.9816 15.9 74.2L15.9 31.8ZM49.5762 37.6512C50.6124 36.615 50.6124 34.935 49.5762 33.8988 48.54 32.8626 46.86 32.8626 45.8238 33.8988L38.3402 41.3824 36.2361 39.4638C35.1236 38.5129 33.4508 38.6439 32.4999 39.7564 31.5929 40.8176 31.6646 42.4004 32.6639 43.3752L36.6389 47.0057C37.6851 47.9582 39.295 47.9209 40.2959 46.9209L49.5709 37.6459ZM49.5762 60.3988C48.5426 59.3626 46.8647 59.3605 45.8285 60.394 45.827 60.3956 45.8254 60.3972 45.8238 60.3988L38.3402 67.8824 36.2361 65.9638C35.1236 65.013 33.4508 65.1439 32.4999 66.2564 31.5929 67.3174 31.6646 68.9005 32.6639 69.8752L36.6389 73.5057C37.6837 74.4597 39.2936 74.4247 40.2959 73.4262L49.5709 64.1512C50.6054 63.1166 50.6054 61.4387 49.5709 60.4041ZM55.65 39.75C55.65 41.2135 56.8367 42.4 58.3 42.4L71.55 42.4C73.0133 42.4 74.2 41.2135 74.2 39.75 74.2 38.2865 73.0133 37.1 71.55 37.1L58.3 37.1C56.8367 37.1 55.65 38.2865 55.65 39.75ZM92.75 63.6C92.75 69.4544 88.0044 74.2 82.15 74.2 76.2956 74.2 71.55 69.4544 71.55 63.6 71.55 57.7456 76.2956 53 82.15 53 88.0044 53 92.75 57.7456 92.75 63.6ZM100.7 87.45C100.7 94.0485 95.4 100.7 82.15 100.7 68.9 100.7 63.6 94.075 63.6 87.45 63.6 83.0595 67.1595 79.5 71.55 79.5L92.75 79.5C97.1405 79.5 100.7 83.0595 100.7 87.45Z" fill="#316BAA" transform="matrix(1.00943 0 0 1 73 2147)"/></g></svg>