<svg width="106" height="106" xmlns="http://www.w3.org/2000/svg" xmlns:xlink="http://www.w3.org/1999/xlink" xml:space="preserve" overflow="hidden"><g transform="translate(-73 -2151)"><path d="M88.9 2182.8C88.9 2174.02 96.0187 2166.9 104.8 2166.9L147.2 2166.9C155.982 2166.9 163.1 2174.02 163.1 2182.8L163.1 2200.83C155.495 2196.43 145.771 2199.04 141.38 2206.65 139.984 2209.06 139.249 2211.81 139.25 2214.6L131.3 2214.6C129.837 2214.6 128.65 2215.79 128.65 2217.25 128.65 2218.71 129.837 2219.9 131.3 2219.9L140.151 2219.9C140.853 2221.88 141.939 2223.7 143.347 2225.25 136.523 2225.88 131.299 2231.6 131.3 2238.45 131.3 2239.34 131.369 2240.22 131.501 2241.1L104.8 2241.1C96.0187 2241.1 88.9 2233.98 88.9 2225.2L88.9 2182.8ZM122.576 2188.65C123.612 2187.61 123.612 2185.94 122.576 2184.9 121.54 2183.86 119.86 2183.86 118.824 2184.9L111.34 2192.38 109.236 2190.46C108.124 2189.51 106.451 2189.64 105.5 2190.76 104.593 2191.82 104.665 2193.4 105.664 2194.38L109.639 2198.01C110.685 2198.96 112.295 2198.92 113.296 2197.92L122.571 2188.65ZM122.576 2211.4C121.543 2210.36 119.865 2210.36 118.829 2211.39 118.827 2211.4 118.825 2211.4 118.824 2211.4L111.34 2218.88 109.236 2216.96C108.124 2216.01 106.451 2216.14 105.5 2217.26 104.593 2218.32 104.665 2219.9 105.664 2220.88L109.639 2224.51C110.684 2225.46 112.294 2225.42 113.296 2224.43L122.571 2215.15C123.605 2214.12 123.605 2212.44 122.571 2211.4ZM128.65 2190.75C128.65 2192.21 129.837 2193.4 131.3 2193.4L144.55 2193.4C146.013 2193.4 147.2 2192.21 147.2 2190.75 147.2 2189.29 146.013 2188.1 144.55 2188.1L131.3 2188.1C129.837 2188.1 128.65 2189.29 128.65 2190.75ZM165.75 2214.6C165.75 2220.45 161.004 2225.2 155.15 2225.2 149.296 2225.2 144.55 2220.45 144.55 2214.6 144.55 2208.75 149.296 2204 155.15 2204 161.004 2204 165.75 2208.75 165.75 2214.6ZM173.7 2238.45C173.7 2245.05 168.4 2251.7 155.15 2251.7 141.9 2251.7 136.6 2245.07 136.6 2238.45 136.6 2234.06 140.159 2230.5 144.55 2230.5L165.75 2230.5C170.141 2230.5 173.7 2234.06 173.7 2238.45Z" fill="#316BAA"/></g></svg>