<svg width="128" height="124" xmlns="http://www.w3.org/2000/svg" xmlns:xlink="http://www.w3.org/1999/xlink" xml:space="preserve" overflow="hidden"><defs><clipPath id="clip0"><rect x="977" y="17519" width="128" height="124"/></clipPath><linearGradient x1="1041" y1="17643" x2="1041" y2="17519" gradientUnits="userSpaceOnUse" spreadMethod="reflect" id="fill1"><stop offset="0" stop-color="#0078D4"/><stop offset="0.064" stop-color="#0A7CD7"/><stop offset="0.338" stop-color="#2E8CE1"/><stop offset="0.594" stop-color="#4897E9"/><stop offset="0.822" stop-color="#589EED"/><stop offset="1" stop-color="#5EA0EF"/></linearGradient></defs><g clip-path="url(#clip0)" transform="translate(-977 -17519)"><path d="M1066.17 17519C1047.49 17519 1032.35 17533.8 1032.35 17552.1 1032.35 17554.7 1032.67 17557.3 1033.28 17559.8L982.172 17609.8C975.276 17616.5 975.276 17627.5 982.172 17634.2 989.067 17641 1000.25 17641 1007.14 17634.2L1032.44 17609.5C1033.87 17589.2 1051.18 17573.1 1072.32 17573.1 1078.21 17573.1 1083.81 17574.4 1088.85 17576.6 1095.69 17570.6 1099.99 17561.8 1099.99 17552.1 1099.99 17548.4 1099.38 17544.9 1098.25 17541.6 1097.75 17540.1 1096.49 17539 1094.94 17538.6 1093.38 17538.3 1091.75 17538.7 1090.62 17539.8L1075.59 17554.5C1073.79 17556.3 1070.87 17556.3 1069.07 17554.5L1063.67 17549.2C1061.87 17547.5 1061.87 17544.6 1063.67 17542.9L1078.7 17528.2C1079.83 17527.1 1080.29 17525.5 1079.93 17523.9 1079.56 17522.4 1078.41 17521.2 1076.9 17520.7 1073.52 17519.6 1069.91 17519 1066.17 17519ZM1052.5 17591C1054.44 17597.6 1050.41 17604.4 1043.64 17606L1040.04 17606.9C1039.77 17608.6 1039.62 17610.4 1039.62 17612.2 1039.62 17614.1 1039.78 17615.9 1040.08 17617.7L1043.4 17618.5C1050.24 17620.1 1054.31 17627 1052.32 17633.6L1051.17 17637.4C1053.87 17639.7 1056.95 17641.6 1060.3 17643L1063.33 17639.8C1068.18 17634.9 1076.31 17634.9 1081.16 17639.8L1084.23 17643C1087.57 17641.7 1090.64 17639.8 1093.35 17637.5L1092.13 17633.4C1090.19 17626.8 1094.22 17620 1100.99 17618.4L1104.58 17617.5C1104.86 17615.8 1105 17614 1105 17612.2 1105 17610.3 1104.84 17608.4 1104.54 17606.6L1101.23 17605.9C1094.39 17604.3 1090.32 17597.4 1092.31 17590.8L1093.45 17587C1090.75 17584.7 1087.68 17582.8 1084.33 17581.4L1081.3 17584.6C1076.45 17589.5 1068.32 17589.5 1063.47 17584.5L1060.4 17581.4C1057.06 17582.7 1053.98 17584.6 1051.28 17586.9L1052.5 17591ZM1072.31 17621.2C1067.39 17621.2 1063.4 17617.2 1063.4 17612.2 1063.4 17607.2 1067.39 17603.2 1072.31 17603.2 1077.24 17603.2 1081.23 17607.2 1081.23 17612.2 1081.23 17617.2 1077.24 17621.2 1072.31 17621.2Z" fill="url(#fill1)" fill-rule="evenodd"/></g></svg>