<svg width="151" height="106" xmlns="http://www.w3.org/2000/svg" xmlns:xlink="http://www.w3.org/1999/xlink" xml:space="preserve" overflow="hidden"><defs><clipPath id="clip0"><rect x="2281" y="7810" width="151" height="106"/></clipPath><linearGradient x1="2356.5" y1="7810" x2="2356.5" y2="7916" gradientUnits="userSpaceOnUse" spreadMethod="reflect" id="fill1"><stop offset="0" stop-color="#32D4F5"/><stop offset="0.22" stop-color="#32D4F5"/><stop offset="1" stop-color="#198AB3"/></linearGradient></defs><g clip-path="url(#clip0)" transform="translate(-2281 -7810)"><path d="M2325.76 7886.65C2325.76 7870.01 2339.77 7856.87 2356.5 7856.87 2373.23 7856.87 2387.24 7870.01 2387.24 7886.65 2387.24 7902.86 2373.23 7916 2356.5 7916 2339.77 7916 2325.76 7902.86 2325.76 7886.65ZM2432 7864.75C2422.51 7833.21 2392.22 7810 2356.5 7810 2320.78 7810 2290.49 7833.21 2281 7864.75 2296.82 7869.13 2296.82 7869.13 2296.82 7869.13 2304.51 7844.17 2328.47 7826.21 2356.5 7826.21 2384.53 7826.21 2408.04 7844.17 2415.72 7868.69L2432 7864.75Z" fill="url(#fill1)" fill-rule="evenodd"/></g></svg>