<svg width="142" height="152" xmlns="http://www.w3.org/2000/svg" xmlns:xlink="http://www.w3.org/1999/xlink" xml:space="preserve" overflow="hidden"><defs><linearGradient x1="4536.5" y1="12865" x2="4536.5" y2="12827" gradientUnits="userSpaceOnUse" spreadMethod="reflect" id="fill0"><stop offset="0" stop-color="#0078D4"/><stop offset="0.064" stop-color="#0A7CD7"/><stop offset="0.338" stop-color="#2E8CE1"/><stop offset="0.594" stop-color="#4897E9"/><stop offset="0.822" stop-color="#589EED"/><stop offset="1" stop-color="#5EA0EF"/></linearGradient><linearGradient x1="4468" y1="12865" x2="4468" y2="12827" gradientUnits="userSpaceOnUse" spreadMethod="reflect" id="fill1"><stop offset="0" stop-color="#0078D4"/><stop offset="0.064" stop-color="#0A7CD7"/><stop offset="0.338" stop-color="#2E8CE1"/><stop offset="0.594" stop-color="#4897E9"/><stop offset="0.822" stop-color="#589EED"/><stop offset="1" stop-color="#5EA0EF"/></linearGradient><linearGradient x1="4502" y1="12913" x2="4502" y2="12875" gradientUnits="userSpaceOnUse" spreadMethod="reflect" id="fill2"><stop offset="0" stop-color="#0078D4"/><stop offset="0.064" stop-color="#0A7CD7"/><stop offset="0.338" stop-color="#2E8CE1"/><stop offset="0.594" stop-color="#4897E9"/><stop offset="0.822" stop-color="#589EED"/><stop offset="1" stop-color="#5EA0EF"/></linearGradient><linearGradient x1="4502" y1="12879" x2="4502" y2="12804" gradientUnits="userSpaceOnUse" spreadMethod="reflect" id="fill3"><stop offset="0" stop-color="#5E9624"/><stop offset="0.18" stop-color="#629C25"/><stop offset="0.44" stop-color="#6DAE2A"/><stop offset="0.73" stop-color="#7FCB30"/><stop offset="0.82" stop-color="#86D633"/><stop offset="1" stop-color="#86D633"/></linearGradient><linearGradient x1="4502" y1="12808" x2="4502" y2="12761" gradientUnits="userSpaceOnUse" spreadMethod="reflect" id="fill4"><stop offset="0" stop-color="#5E9624"/><stop offset="0.18" stop-color="#629C25"/><stop offset="0.44" stop-color="#6DAE2A"/><stop offset="0.73" stop-color="#7FCB30"/><stop offset="0.82" stop-color="#86D633"/><stop offset="1" stop-color="#86D633"/></linearGradient></defs><g transform="translate(-4431 -12761)"><path d="M4557 12865 4557 12865 4544.74 12827 4516.35 12827 4516 12865 4557 12865Z" fill="url(#fill0)" fill-rule="evenodd"/><path d="M4488 12827 4488 12827 4460.28 12827 4448 12865 4487.65 12865 4488 12827Z" fill="url(#fill1)" fill-rule="evenodd"/><path d="M4573 12913 4573 12913 4560.22 12875 4515.49 12875 4515.49 12875C4515.13 12882.7 4508.75 12889.1 4500.94 12889.1 4497.03 12889.1 4493.48 12887.3 4491 12884.9 4488.51 12882 4487.09 12878.5 4487.09 12875L4443.78 12875 4431 12913 4573 12913Z" fill="url(#fill2)" fill-rule="evenodd"/><path d="M4502.19 12879 4502.19 12879C4499.22 12879 4497 12876.9 4497 12874.4L4497 12808.6C4497 12806.1 4499.22 12804 4502.19 12804 4504.78 12804 4507 12806.1 4507 12808.6L4507 12874.4C4507 12876.9 4504.78 12879 4502.19 12879Z" fill="url(#fill3)" fill-rule="evenodd"/><path d="M4523.85 12774.9 4523.85 12774.9C4522.78 12772 4520.99 12769.5 4518.84 12767.4 4516.69 12765.3 4514.18 12763.8 4511.31 12762.4 4508.45 12761.7 4505.22 12761 4502 12761 4498.78 12761 4495.55 12761.7 4492.69 12762.4 4489.82 12763.8 4487.31 12765.3 4485.16 12767.4 4483.02 12769.5 4481.22 12772 4479.79 12774.9 4478.72 12778.1 4478 12780.9 4478 12784.1 4478 12787.7 4478.72 12790.6 4479.79 12793.8 4481.22 12796.6 4483.02 12799.1 4485.16 12801.2 4485.88 12802.3 4487.31 12803 4488.39 12803.7 4489.82 12804.8 4490.9 12805.5 4492.69 12806.2 4492.69 12806.2 4492.69 12806.2 4492.69 12806.2 4494.12 12806.9 4495.55 12807.3 4497.34 12807.6 4498.78 12808 4500.21 12808 4502 12808 4503.43 12808 4505.22 12808 4506.66 12807.6 4508.09 12807.3 4509.88 12806.9 4511.31 12806.2 4511.31 12806.2 4511.31 12806.2 4511.31 12806.2 4512.75 12805.5 4514.18 12804.8 4515.61 12803.7 4516.69 12803 4517.76 12802.3 4518.84 12801.2 4520.99 12799.1 4522.78 12796.6 4523.85 12793.8 4525.28 12790.6 4526 12787.7 4526 12784.1 4526 12780.9 4525.28 12778.1 4523.85 12774.9Z" fill="url(#fill4)" fill-rule="evenodd"/></g></svg>