<svg width="135" height="162" xmlns="http://www.w3.org/2000/svg" xmlns:xlink="http://www.w3.org/1999/xlink" xml:space="preserve" overflow="hidden"><defs><linearGradient x1="1044.1" y1="11295.1" x2="1044.1" y2="11134.1" gradientUnits="userSpaceOnUse" spreadMethod="reflect" id="fill0"><stop offset="0" stop-color="#5E9624"/><stop offset="0.18" stop-color="#629C25"/><stop offset="0.44" stop-color="#6DAE2A"/><stop offset="0.73" stop-color="#7FCB30"/><stop offset="0.82" stop-color="#86D633"/><stop offset="1" stop-color="#86D633"/></linearGradient></defs><g transform="translate(-977 -11134)"><path d="M1095.6 11204.5 1095.6 11204.5C1094.45 11205.6 1093.68 11206 1092.15 11206 1090.23 11206 1088.69 11205.2 1087.93 11203.3 1082.94 11194.7 1076.8 11188.2 1069.9 11184.1 1062.61 11179.5 1053.78 11177.3 1043.81 11177.3 1039.59 11177.3 1035.75 11177.6 1031.92 11178 1028.46 11178.4 1024.63 11179.2 1021.56 11180.3 1018.1 11181.8 1015.04 11183.3 1012.35 11185.6 1009.28 11187.9 1006.6 11190.5 1004.29 11193.9 1003.91 11194.7 1003.14 11195.4 1002.76 11195.8 1001.99 11196.2 1001.23 11196.5 1000.07 11196.5 998.923 11196.5 997.772 11196.2 996.622 11195 995.854 11194.3 995.471 11193.1 995.471 11191.6 995.471 11190.9 995.471 11190.1 995.854 11189.4 998.156 11185.2 1001.23 11181.4 1004.68 11178.8 1008.13 11176.1 1012.35 11173.9 1016.57 11172.4 1020.79 11170.5 1025.39 11169.3 1030 11169 1034.6 11168.2 1039.2 11167.8 1043.81 11167.8 1049.18 11167.8 1054.55 11168.6 1059.92 11170.1 1065.29 11171.2 1070.28 11173.1 1074.88 11175.8 1079.87 11178.4 1084.09 11181.8 1087.54 11185.6 1091.38 11189.7 1094.45 11194.3 1096.75 11199.2 1096.75 11199.9 1097.13 11200.7 1097.13 11201.1 1097.13 11202.6 1096.37 11203.7 1095.6 11204.5ZM1083.71 11237.7 1083.71 11237.7C1082.94 11240.8 1082.17 11243.8 1081.4 11247.2 1080.25 11250.6 1079.1 11254 1077.57 11257.4 1076.42 11260.8 1074.88 11264.2 1072.96 11267.2 1071.43 11270.3 1069.51 11272.9 1067.59 11275.2 1065.68 11277.8 1063.76 11279.7 1061.46 11281.2 1061.07 11281.6 1060.69 11282 1059.92 11282 1059.54 11282.3 1059.15 11282.3 1058.39 11282.3 1057.24 11282.3 1056.08 11282 1054.93 11280.8 1054.17 11280.1 1053.78 11278.9 1053.78 11277.4 1053.78 11276.7 1053.78 11276.3 1054.17 11275.5 1054.17 11275.2 1054.93 11274.4 1055.32 11274 1058.39 11271 1060.69 11268 1062.99 11264.6 1065.68 11260.8 1067.59 11257 1069.13 11253.2 1071.05 11249.1 1072.2 11244.9 1073.35 11240.8 1074.12 11237 1074.5 11232.8 1074.5 11228.7 1074.5 11224.9 1073.73 11220.7 1072.2 11217 1070.66 11213.2 1068.36 11209.4 1065.68 11206.4 1062.99 11203.3 1059.54 11201.1 1056.08 11199.2 1052.25 11197.3 1048.03 11196.5 1043.81 11196.5 1039.2 11196.5 1035.37 11196.9 1032.3 11197.3 1029.23 11198.1 1026.93 11198.8 1025.01 11199.9 1022.71 11201.1 1021.17 11202.6 1020.02 11204.1 1018.87 11206 1017.72 11207.9 1016.19 11209.8 1015.04 11211.7 1013.88 11213.9 1012.35 11216.6 1010.82 11218.8 1008.51 11221.5 1006.21 11224.5 1004.29 11226.4 1001.99 11228.7 999.691 11230.6 997.389 11232.5 994.703 11233.6 992.018 11234.3 991.634 11234.7 991.634 11234.7 991.251 11234.7L990.867 11234.7C989.333 11234.7 988.182 11234.3 987.031 11233.2 986.263 11232.1 985.88 11230.9 985.88 11229.8 985.88 11228.7 985.88 11227.5 986.647 11227.2 987.414 11226.4 988.182 11225.7 989.333 11225.3 992.018 11224.1 994.703 11222.6 996.622 11221.1 998.54 11219.6 1000.07 11217.7 1001.61 11215.4 1003.14 11213.6 1004.29 11211.7 1005.45 11209.4 1006.6 11207.1 1007.75 11204.9 1008.9 11203 1010.43 11200.7 1011.97 11198.8 1013.5 11196.9 1015.42 11194.7 1017.72 11193.1 1020.41 11191.6 1022.71 11190.1 1026.16 11189 1030 11188.2 1033.83 11187.5 1038.44 11187.1 1043.81 11187.1 1047.64 11187.1 1051.48 11187.5 1054.93 11188.6 1058.39 11189.7 1061.46 11191.3 1064.52 11193.1 1067.59 11195 1070.28 11197.3 1072.58 11199.9 1074.88 11202.6 1077.18 11205.2 1078.72 11208.6 1080.64 11211.7 1081.79 11215.1 1082.94 11218.5 1083.71 11221.9 1084.47 11225.3 1084.47 11229.1 1084.47 11231.7 1084.09 11234.3 1083.71 11237.7ZM1046.11 11268.4 1046.11 11268.4C1043.81 11271.4 1041.12 11274 1038.82 11276.3 1036.52 11278.6 1034.22 11280.5 1031.92 11281.6 1031.53 11282 1031.15 11282 1030.76 11282.3 1030.38 11282.3 1030 11282.3 1029.23 11282.3 1028.08 11282.3 1026.93 11282 1026.16 11280.8 1025.01 11280.1 1024.63 11278.9 1024.63 11277.4 1024.63 11275.9 1025.39 11274.8 1026.54 11273.7 1028.46 11272.1 1030.38 11270.6 1032.3 11268.7 1034.6 11266.8 1036.52 11264.6 1038.44 11261.9 1040.36 11259.7 1042.27 11257 1044.19 11254.4 1046.11 11251.7 1047.64 11249.1 1049.18 11246.1 1050.71 11243.4 1051.48 11240.8 1052.63 11238.1 1053.4 11235.5 1053.78 11233.2 1053.78 11230.9 1053.78 11228.3 1053.4 11225.7 1053.02 11223.8 1052.63 11221.9 1051.86 11220.4 1051.1 11219.2 1049.95 11217.7 1048.41 11217 1046.49 11216.6 1044.58 11215.8 1041.89 11215.4 1039.2 11215.4 1036.9 11215.4 1035.37 11215.8 1033.83 11217 1032.3 11217.7 1031.15 11218.8 1030 11220 1028.85 11221.5 1027.7 11223 1026.93 11224.9 1026.16 11226.8 1025.01 11228.7 1023.86 11230.6 1023.09 11232.8 1021.94 11234.7 1020.79 11237 1019.64 11239.3 1018.1 11241.1 1016.19 11243.4 1014.65 11245.3 1012.73 11247.2 1010.43 11248.7 1008.13 11250.6 1005.45 11252.1 1001.99 11253.2 1001.61 11253.6 1000.84 11253.6 1000.07 11253.6 998.923 11253.6 997.772 11253.2 997.005 11252.5 995.854 11251.4 995.471 11250.2 995.471 11249.1 995.471 11248 995.854 11247.2 996.238 11246.4 997.005 11245.7 997.772 11244.9 998.54 11244.5 1001.99 11243 1005.06 11240.8 1007.75 11238.1 1010.82 11235.5 1012.73 11232.5 1014.65 11229.1 1015.8 11226 1016.95 11223.4 1018.49 11220.4 1019.64 11217.7 1021.17 11215.1 1023.09 11213.2 1025.01 11210.9 1026.93 11209.4 1029.61 11207.9 1032.3 11206.8 1035.37 11206 1039.2 11206 1047.64 11206 1053.78 11208.3 1057.62 11212.4 1061.46 11216.6 1063.37 11222.6 1063.37 11230.9 1063.37 11233.6 1062.99 11236.2 1061.84 11239.3 1061.07 11242.7 1059.92 11245.7 1058 11249.1 1056.47 11252.5 1054.55 11255.9 1052.63 11259.3 1050.33 11262.3 1048.41 11265.7 1046.11 11268.4ZM1013.88 11271.8 1013.88 11271.8C1011.2 11273.3 1008.51 11274 1006.21 11274 1005.06 11274 1003.91 11273.7 1003.14 11272.5 1001.99 11271.8 1001.61 11270.6 1001.61 11269.1 1001.61 11268.4 1001.99 11267.2 1002.38 11266.5 1002.76 11265.7 1003.53 11265.3 1004.68 11265 1008.51 11263.1 1011.97 11261.2 1015.04 11258.5 1018.1 11255.9 1021.17 11253.2 1023.48 11250.2 1025.78 11246.8 1028.08 11243.4 1030 11240 1031.53 11236.2 1033.07 11232.5 1034.22 11228.7 1034.6 11227.5 1035.37 11226.8 1036.14 11226 1036.9 11225.3 1037.67 11225.3 1039.2 11225.3 1040.36 11225.3 1041.51 11225.7 1042.66 11226.4 1043.42 11227.5 1043.81 11228.7 1043.81 11229.8 1043.81 11232.1 1043.42 11234.3 1042.27 11237.4 1040.74 11240.4 1039.2 11243.4 1037.29 11246.8 1035.37 11250.2 1033.07 11253.2 1030.38 11256.6 1027.7 11260 1025.01 11262.7 1022.32 11265.3 1019.26 11268 1016.57 11269.9 1013.88 11271.8ZM1007.36 11157.2 1007.36 11157.2C1008.9 11155.7 1011.2 11155 1013.5 11153.8 1016.19 11153.1 1018.87 11152.3 1021.94 11151.6 1024.63 11150.8 1027.7 11150.4 1030.76 11150.1 1033.45 11149.7 1036.14 11149.3 1038.44 11148.9 1040.74 11148.9 1042.66 11148.9 1043.81 11148.9 1044.96 11148.9 1049.56 11148.9 1052.25 11148.9 1054.93 11149.3 1057.62 11149.7 1061.07 11150.4 1064.14 11150.8 1074.88 11154.2 1077.95 11155.3 1080.64 11156.5 1082.94 11157.6 1084.47 11159.1 1086.39 11160.3 1087.16 11161.8 1087.16 11163.3 1087.16 11164.8 1086.77 11165.9 1086.01 11166.7 1084.86 11167.8 1083.71 11168.2 1082.55 11168.2 1081.79 11168.2 1081.02 11167.8 1080.25 11167.4 1074.12 11164.4 1068.36 11162.2 1062.61 11160.6 1056.47 11159.1 1050.33 11158.4 1043.81 11158.4 1038.05 11158.4 1032.68 11158.8 1027.31 11160.3 1022.32 11161.4 1016.95 11162.9 1011.97 11165.2 1011.58 11165.6 1011.2 11165.6 1010.82 11165.6 1010.43 11165.6 1010.05 11165.9 1009.66 11165.9 1008.51 11165.9 1007.36 11165.2 1006.6 11164.4 1005.45 11163.3 1005.06 11162.2 1005.06 11161 1005.06 11159.5 1005.83 11158.4 1007.36 11157.2ZM1063.76 11135.7 1063.76 11135.7C1028.08 11127 990.867 11155.3 980.125 11198.8 969 11242.7 988.949 11285 1024.63 11293.7 1059.92 11302 1097.52 11273.7 1108.26 11229.8 1119 11186 1099.05 11143.6 1063.76 11135.7Z" fill="url(#fill0)" fill-rule="evenodd"/></g></svg>