<svg width="135" height="139" xmlns="http://www.w3.org/2000/svg" xmlns:xlink="http://www.w3.org/1999/xlink" xml:space="preserve" overflow="hidden"><defs><linearGradient x1="2337.5" y1="16929" x2="2337.5" y2="16790" gradientUnits="userSpaceOnUse" spreadMethod="reflect" id="fill0"><stop offset="0" stop-color="#0078D4"/><stop offset="0.064" stop-color="#0A7CD7"/><stop offset="0.338" stop-color="#2E8CE1"/><stop offset="0.594" stop-color="#4897E9"/><stop offset="0.822" stop-color="#589EED"/><stop offset="1" stop-color="#5EA0EF"/></linearGradient></defs><g transform="translate(-2270 -16790)"><path d="M2315 16790 2315 16790 2315 16836.1 2333.06 16836.1 2333.06 16854.8 2287.75 16854.8 2287.75 16882.6 2270 16882.6 2270 16929 2315 16929 2315 16882.6 2296.94 16882.6 2296.94 16863.9 2378.06 16863.9 2378.06 16882.6 2360 16882.6 2360 16929 2405 16929 2405 16882.6 2386.94 16882.6 2386.94 16854.8 2341.94 16854.8 2341.94 16836.1 2360 16836.1 2360 16790 2315 16790ZM2323.87 16798.8 2323.87 16798.8 2351.13 16798.8 2351.13 16827 2323.87 16827 2323.87 16798.8ZM2368.87 16892 2368.87 16892 2396.13 16892 2396.13 16919.8 2368.87 16919.8 2368.87 16892ZM2278.87 16892 2278.87 16892 2305.81 16892 2305.81 16919.8 2278.87 16919.8 2278.87 16892Z" fill="url(#fill0)" fill-rule="evenodd"/><path d="M2279 16920 2279 16920 2306 16920 2306 16892 2279 16892 2279 16920Z" fill="#FFFFFF" fill-rule="evenodd"/><path d="M2369 16920 2369 16920 2396 16920 2396 16892 2369 16892 2369 16920Z" fill="#FFFFFF" fill-rule="evenodd"/><path d="M2351 16799 2351 16799 2324 16799 2324 16827 2351 16827 2351 16799Z" fill="#FFFFFF" fill-rule="evenodd"/></g></svg>