<svg width="187" height="116" xmlns="http://www.w3.org/2000/svg" xmlns:xlink="http://www.w3.org/1999/xlink" xml:space="preserve" overflow="hidden"><defs><linearGradient x1="3393.5" y1="18516" x2="3393.5" y2="18428" gradientUnits="userSpaceOnUse" spreadMethod="reflect" id="fill0"><stop offset="0" stop-color="#5E9624"/><stop offset="0.18" stop-color="#629C25"/><stop offset="0.44" stop-color="#6DAE2A"/><stop offset="0.73" stop-color="#7FCB30"/><stop offset="0.82" stop-color="#86D633"/><stop offset="1" stop-color="#86D633"/></linearGradient><linearGradient x1="3445.5" y1="18544" x2="3445.5" y2="18449" gradientUnits="userSpaceOnUse" spreadMethod="reflect" id="fill1"><stop offset="0" stop-color="#0078D4"/><stop offset="0.064" stop-color="#0A7CD7"/><stop offset="0.338" stop-color="#2E8CE1"/><stop offset="0.594" stop-color="#4897E9"/><stop offset="0.822" stop-color="#589EED"/><stop offset="1" stop-color="#5EA0EF"/></linearGradient></defs><g transform="translate(-3332 -18428)"><path d="M3340.79 18500.5 3340.79 18500.5C3343.42 18503.4 3346.94 18505.5 3350.45 18506.8 3354.4 18508.5 3358.36 18509.3 3362.75 18509.3L3432.6 18509.3C3433.48 18511.4 3434.79 18513.1 3436.99 18514.3 3438.75 18515.2 3440.94 18516 3443.14 18516 3444.9 18516 3446.65 18515.6 3447.97 18515.2 3449.29 18514.7 3450.61 18513.9 3451.49 18512.6 3452.8 18511.8 3453.68 18510.6 3454.12 18508.9 3455 18507.6 3455 18506.4 3455 18504.7 3455 18503 3455 18501.8 3454.12 18500.1 3453.68 18498.8 3452.8 18497.6 3451.49 18496.7 3450.61 18495.5 3449.29 18495 3447.97 18494.2 3446.65 18493.8 3444.9 18493.4 3443.14 18493.4 3440.94 18493.4 3438.75 18493.8 3436.99 18495 3434.79 18496.3 3433.48 18498 3432.6 18500.1L3362.75 18500.1C3359.68 18500.1 3357.04 18499.7 3354.4 18498.4 3351.77 18497.6 3349.57 18495.9 3347.38 18494.2 3345.62 18492.1 3344.3 18490 3342.98 18487.5 3341.66 18485 3341.23 18482.5 3341.23 18480 3341.23 18477 3341.66 18474.5 3342.98 18472 3344.3 18469.5 3345.62 18467.4 3347.38 18465.3 3349.57 18463.6 3351.77 18461.9 3354.4 18461.1 3357.04 18459.8 3359.68 18459.4 3362.75 18459.4L3372.41 18459.4C3373.29 18456.1 3374.17 18453.1 3375.93 18450.6 3377.69 18447.7 3379.88 18445.2 3382.08 18443.5 3384.71 18441.4 3387.35 18439.7 3390.86 18438.5 3393.94 18437.6 3397.01 18436.8 3400.53 18436.8 3404.92 18436.8 3409.31 18438.1 3413.27 18439.7 3417.22 18441.8 3420.74 18444.3 3423.37 18447.7 3425.13 18447.3 3426.45 18446.4 3428.2 18446 3429.52 18445.6 3431.28 18445.2 3433.04 18444.8 3430.84 18442.2 3429.08 18439.7 3426.89 18437.6 3424.25 18435.5 3421.61 18433.9 3418.98 18432.2 3416.34 18430.9 3413.27 18429.7 3410.19 18428.8 3407.12 18428.4 3404.04 18428 3400.53 18428 3396.57 18428 3393.06 18428.4 3389.55 18429.3 3385.59 18430.5 3382.52 18432.2 3379.44 18433.9 3376.37 18436 3373.73 18438.5 3371.1 18441 3368.9 18443.9 3366.7 18446.9 3365.39 18450.6L3362.75 18450.6C3358.36 18450.6 3354.4 18451 3350.45 18452.7 3346.94 18454.4 3343.42 18456.5 3340.79 18459 3338.15 18461.5 3335.95 18464.9 3334.2 18468.2 3332.44 18472 3332 18475.8 3332 18480 3332 18483.7 3332.44 18487.5 3334.2 18491.3 3335.95 18494.6 3338.15 18498 3340.79 18500.5Z" fill="url(#fill0)" fill-rule="evenodd"/><path d="M3508.03 18482.5 3508.03 18482.5C3504.52 18479.1 3500.57 18476.6 3496.18 18474.5 3491.35 18472.9 3486.53 18471.6 3481.7 18471.6 3479.51 18468.3 3477.31 18464.9 3474.68 18462.4 3472.05 18459.5 3468.98 18457.4 3465.9 18455.3 3462.39 18453.2 3458.88 18451.9 3454.93 18450.7 3451.42 18449.8 3447.47 18449 3443.09 18449 3438.26 18449 3433.43 18449.8 3429.04 18451.5 3424.22 18453.2 3420.27 18455.3 3416.76 18458.2 3412.81 18460.7 3409.74 18464.1 3407.1 18468.3 3404.47 18472 3402.72 18476.2 3401.4 18480.8 3396.57 18481.2 3392.18 18482.9 3388.24 18485 3383.85 18487.5 3380.34 18490.4 3377.7 18494.2L3428.61 18494.2C3430.36 18492.1 3432.55 18490.4 3434.75 18489.2 3437.38 18487.9 3440.45 18487.5 3443.09 18487.5 3445.72 18487.5 3448.35 18487.9 3450.55 18488.8 3452.74 18489.6 3454.93 18491.3 3456.69 18492.5 3458.44 18494.2 3459.76 18496.3 3460.64 18498.4 3461.52 18500.5 3462.39 18503 3462.39 18505.5 3462.39 18508 3461.52 18510.1 3460.64 18512.6 3459.76 18514.7 3458.44 18516.4 3456.69 18518.1 3454.93 18519.7 3452.74 18521 3450.55 18522.2 3448.35 18523.1 3445.72 18523.5 3443.09 18523.5 3440.45 18523.5 3437.38 18523.1 3435.19 18521.8 3432.55 18520.6 3430.36 18518.9 3428.61 18516.8L3372 18516.8C3372.44 18520.6 3373.75 18524.3 3375.51 18527.7 3377.7 18531 3379.9 18534 3382.97 18536 3386.04 18538.6 3389.11 18540.7 3393.06 18541.9 3396.57 18543.2 3400.52 18544 3404.91 18544L3481.26 18544C3486.53 18544 3491.35 18543.2 3495.74 18541.1 3500.57 18539 3504.52 18536.5 3508.03 18533.5 3511.54 18530.2 3514.17 18526.4 3515.93 18521.8 3518.12 18517.6 3519 18512.6 3519 18508 3519 18503 3518.12 18498.4 3515.93 18493.8 3514.17 18489.6 3511.54 18485.8 3508.03 18482.5Z" fill="url(#fill1)" fill-rule="evenodd"/></g></svg>