<svg width="96" height="96" viewBox="0 0 96 96" fill="none" xmlns="http://www.w3.org/2000/svg">
<g clip-path="url(#clip0_4303_1230)">
<path d="M36.3311 56.6621C51.9779 56.6621 64.6621 43.9779 64.6621 28.3311C64.6621 12.6842 51.9779 0 36.3311 0C20.6842 0 8 12.6842 8 28.3311C8 43.9779 20.6842 56.6621 36.3311 56.6621Z" fill="url(#paint0_linear_4303_1230)"/>
<path d="M36.3311 56.6621C51.9779 56.6621 64.6621 43.9779 64.6621 28.3311C64.6621 12.6842 51.9779 0 36.3311 0C20.6842 0 8 12.6842 8 28.3311C8 43.9779 20.6842 56.6621 36.3311 56.6621Z" fill="url(#paint1_radial_4303_1230)" fill-opacity="0.2"/>
<path d="M36.3311 56.6621C51.9779 56.6621 64.6621 43.9779 64.6621 28.3311C64.6621 12.6842 51.9779 0 36.3311 0C20.6842 0 8 12.6842 8 28.3311C8 43.9779 20.6842 56.6621 36.3311 56.6621Z" fill="url(#paint2_radial_4303_1230)" fill-opacity="0.31"/>
<path d="M36.3311 56.6621C51.9779 56.6621 64.6621 43.9779 64.6621 28.3311C64.6621 12.6842 51.9779 0 36.3311 0C20.6842 0 8 12.6842 8 28.3311C8 43.9779 20.6842 56.6621 36.3311 56.6621Z" fill="url(#paint3_radial_4303_1230)" fill-opacity="0.7"/>
<path d="M63.6406 76C76.8955 76 87.6406 65.2548 87.6406 52C87.6406 38.7452 76.8955 28 63.6406 28C50.3858 28 39.6406 38.7452 39.6406 52C39.6406 65.2548 50.3858 76 63.6406 76Z" fill="url(#paint4_linear_4303_1230)"/>
<path d="M63.6406 76C76.8955 76 87.6406 65.2548 87.6406 52C87.6406 38.7452 76.8955 28 63.6406 28C50.3858 28 39.6406 38.7452 39.6406 52C39.6406 65.2548 50.3858 76 63.6406 76Z" fill="url(#paint5_radial_4303_1230)" fill-opacity="0.5"/>
<path d="M63.6406 76C76.8955 76 87.6406 65.2548 87.6406 52C87.6406 38.7452 76.8955 28 63.6406 28C50.3858 28 39.6406 38.7452 39.6406 52C39.6406 65.2548 50.3858 76 63.6406 76Z" fill="url(#paint6_radial_4303_1230)" fill-opacity="0.7"/>
<path d="M40 96C51.0457 96 60 87.0457 60 76C60 64.9543 51.0457 56 40 56C28.9543 56 20 64.9543 20 76C20 87.0457 28.9543 96 40 96Z" fill="url(#paint7_linear_4303_1230)"/>
<path d="M40 96C51.0457 96 60 87.0457 60 76C60 64.9543 51.0457 56 40 56C28.9543 56 20 64.9543 20 76C20 87.0457 28.9543 96 40 96Z" fill="url(#paint8_linear_4303_1230)" fill-opacity="0.32"/>
<rect y="44" width="40" height="40" rx="8" fill="url(#paint9_radial_4303_1230)"/>
<rect y="44" width="40" height="40" rx="8" fill="url(#paint10_radial_4303_1230)" fill-opacity="0.6"/>
<path d="M10.9727 71.0445L15.5148 68.7449C16.027 69.749 16.6949 70.4885 17.5188 70.9636C18.3537 71.4386 19.2666 71.6761 20.2574 71.6761C21.3596 71.6761 22.2001 71.4602 22.779 71.0283C23.3579 70.5857 23.6474 69.9217 23.6474 69.0364C23.6474 68.3455 23.369 67.7625 22.8124 67.2875C22.2558 66.8016 21.2705 66.4345 19.8566 66.1862C17.1625 65.7112 15.2031 64.8799 13.9785 63.6923C12.765 62.5047 12.1583 61.0256 12.1583 59.2551C12.1583 57.0526 12.9599 55.2928 14.563 53.9757C16.1661 52.6586 18.2813 52 20.9087 52C22.6788 52 24.2374 52.3509 25.5845 53.0526C26.9315 53.7544 28.0003 54.7584 28.7907 56.0648L24.3487 58.2834C23.8589 57.5493 23.3301 57.0202 22.7623 56.6964C22.1945 56.3617 21.482 56.1943 20.6248 56.1943C19.6006 56.1943 18.8213 56.4103 18.2869 56.8421C17.7637 57.274 17.502 57.8354 17.502 58.5263C17.502 59.1201 17.7525 59.6437 18.2535 60.0972C18.7656 60.5398 19.7898 60.9015 21.3262 61.1822C23.909 61.6572 25.835 62.5209 27.1041 63.7733C28.3844 65.0148 29.0245 66.5857 29.0245 68.4858C29.0245 70.7962 28.2619 72.6262 26.7367 73.9757C25.2115 75.3252 23.0351 76 20.2073 76C18.1589 76 16.3108 75.5682 14.6632 74.7045C13.0267 73.83 11.7965 72.61 10.9727 71.0445Z" fill="white"/>
</g>
<defs>
<linearGradient id="paint0_linear_4303_1230" x1="15.0828" y1="7.08276" x2="52.8575" y2="56.6621" gradientUnits="userSpaceOnUse">
<stop stop-color="#00E3DF"/>
<stop offset="0.410156" stop-color="#0097A8"/>
<stop offset="1" stop-color="#007791"/>
</linearGradient>
<radialGradient id="paint1_radial_4303_1230" cx="0" cy="0" r="1" gradientUnits="userSpaceOnUse" gradientTransform="translate(45 64.5) rotate(-112.448) scale(43.5025 78.2152)">
<stop offset="0.28573" stop-color="#003B5D"/>
<stop offset="0.612265" stop-color="#004A6C" stop-opacity="0.688298"/>
<stop offset="0.968041" stop-color="#006F94" stop-opacity="0"/>
</radialGradient>
<radialGradient id="paint2_radial_4303_1230" cx="0" cy="0" r="1" gradientUnits="userSpaceOnUse" gradientTransform="translate(46 52) rotate(-112.063) scale(36.7168 65.9339)">
<stop offset="0.259744" stop-color="#002A42"/>
<stop offset="0.612265" stop-color="#004261" stop-opacity="0.688298"/>
<stop offset="0.968041" stop-color="#006F94" stop-opacity="0"/>
</radialGradient>
<radialGradient id="paint3_radial_4303_1230" cx="0" cy="0" r="1" gradientUnits="userSpaceOnUse" gradientTransform="translate(52.5 3) rotate(124.447) scale(30.7173)">
<stop stop-color="#78EDFF"/>
<stop offset="1" stop-color="#2CCFCA" stop-opacity="0"/>
</radialGradient>
<linearGradient id="paint4_linear_4303_1230" x1="45.6406" y1="34" x2="77.6406" y2="76" gradientUnits="userSpaceOnUse">
<stop stop-color="#00E3DF"/>
<stop offset="0.476427" stop-color="#00A2B8"/>
<stop offset="0.945063" stop-color="#00637C"/>
</linearGradient>
<radialGradient id="paint5_radial_4303_1230" cx="0" cy="0" r="1" gradientUnits="userSpaceOnUse" gradientTransform="translate(49.8906 72) rotate(-70.8012) scale(29.649 53.421)">
<stop stop-color="#003B5D"/>
<stop offset="0.492035" stop-color="#004C6C" stop-opacity="0.72"/>
<stop offset="0.968041" stop-color="#007A86" stop-opacity="0"/>
</radialGradient>
<radialGradient id="paint6_radial_4303_1230" cx="0" cy="0" r="1" gradientUnits="userSpaceOnUse" gradientTransform="translate(77.3378 30.5414) rotate(124.447) scale(26.0215)">
<stop stop-color="#78EDFF"/>
<stop offset="1" stop-color="#2CCFCA" stop-opacity="0"/>
</radialGradient>
<linearGradient id="paint7_linear_4303_1230" x1="26" y1="58" x2="46" y2="98" gradientUnits="userSpaceOnUse">
<stop offset="0.0534989" stop-color="#75FFF6"/>
<stop offset="0.51144" stop-color="#00C7D1"/>
<stop offset="0.96002" stop-color="#0096AD"/>
</linearGradient>
<linearGradient id="paint8_linear_4303_1230" x1="59.9082" y1="96.002" x2="49.2207" y2="81.002" gradientUnits="userSpaceOnUse">
<stop offset="0.259744" stop-color="#0E5A5D"/>
<stop offset="0.535716" stop-color="#126C6B" stop-opacity="0.688298"/>
<stop offset="0.968041" stop-color="#1C948A" stop-opacity="0"/>
</linearGradient>
<radialGradient id="paint9_radial_4303_1230" cx="0" cy="0" r="1" gradientUnits="userSpaceOnUse" gradientTransform="translate(0 44) rotate(45) scale(56.5685)">
<stop offset="0.0625" stop-color="#00B6BD"/>
<stop offset="0.890131" stop-color="#00495C"/>
</radialGradient>
<radialGradient id="paint10_radial_4303_1230" cx="0" cy="0" r="1" gradientUnits="userSpaceOnUse" gradientTransform="translate(20 68) rotate(90) scale(28 31.875)">
<stop offset="0.566964" stop-color="#1E8581" stop-opacity="0"/>
<stop offset="0.973806" stop-color="#1ECBE6"/>
</radialGradient>
<clipPath id="clip0_4303_1230">
<rect width="96" height="96" fill="white"/>
</clipPath>
</defs>
</svg>
