<svg width="42" height="40" xmlns="http://www.w3.org/2000/svg" xmlns:xlink="http://www.w3.org/1999/xlink" xml:space="preserve" overflow="hidden"><defs><clipPath id="clip0"><rect x="1605" y="7680" width="42" height="40"/></clipPath></defs><g clip-path="url(#clip0)" transform="translate(-1605 -7680)"><path d="M23.0871 8.215C23.1271 12.7914 19.4495 16.5337 14.8731 16.5737 14.8729 16.5737 14.8727 16.5737 14.8725 16.5737 10.2961 16.6138 6.55375 12.9362 6.51375 8.35979 6.51375 8.35958 6.51375 8.35938 6.51375 8.35917 6.47354 3.78274 10.1509 0.0402199 14.7273 7.66121e-06 14.7276 4.59371e-06 14.728 1.54833e-06 14.7283-1.47502e-06L14.7996 0C19.3559-0.0207575 23.0663 3.65603 23.0871 8.21233 23.0871 8.21237 23.0871 8.21246 23.0871 8.2125L23.0871 8.215" fill="#59B4D9" transform="matrix(1.05 0 0 1 1605 7680)"/><path d="M39.74 37.3004 35.5342 30.2171 31.3283 22.9125C31.0658 22.4186 30.5595 22.1025 30.0004 22.0833 29.4411 22.1027 28.9347 22.4191 28.6721 22.9133L24.4667 29.775 20.2608 37.3013C19.773 38.0063 19.9491 38.9734 20.6542 39.4613 20.9282 39.6509 21.2561 39.7473 21.5892 39.7362L38.4117 39.7362C39.2686 39.7651 39.9867 39.0938 40.0155 38.2369 40.0267 37.9032 39.9301 37.5748 39.74 37.3004ZM30.2217 27.3396 31.3288 27.3396 30.8858 33.7588 29.115 33.7588 28.8937 27.3396ZM30.0004 37.0779C29.267 37.0779 28.6725 36.4834 28.6725 35.75 28.6725 35.0166 29.267 34.4221 30.0004 34.4221 30.7338 34.4221 31.3283 35.0166 31.3283 35.75 31.3283 36.4834 30.7338 37.0779 30.0004 37.0779Z" fill="#FF8C00" transform="matrix(1.05 0 0 1 1605 7680)"/><path d="M18.7479 39.7917C18.4627 39.2858 18.3198 38.7122 18.3346 38.1317 18.3511 37.5455 18.517 36.9733 18.8167 36.4692L23.0117 28.9621 23.0279 28.9329 23.0454 28.9042 27.2479 22.0479C27.7467 21.1831 28.6124 20.5927 29.5996 20.4442L29.5996 19.2471 20.8587 19.2471 14.7996 27.6637 8.74042 19.2471 0.000416667 19.2471 0.000416667 40 18.8858 40C18.8388 39.9308 18.7896 39.8646 18.7479 39.7917Z" fill="#59B4D9" transform="matrix(1.05 0 0 1 1605 7680)"/></g></svg>