<svg width="48" height="44" xmlns="http://www.w3.org/2000/svg" xmlns:xlink="http://www.w3.org/1999/xlink" xml:space="preserve" overflow="hidden"><defs><linearGradient x1="31.6507" y1="31.2987" x2="31.6507" y2="18.92" gradientUnits="userSpaceOnUse" spreadMethod="pad" id="fill0"><stop offset="0" stop-color="#005BA1"/><stop offset="1" stop-color="#0078D4"/></linearGradient></defs><g transform="translate(-285 -7677)"><path d="M28.2627 34.1709C28.0964 34.0756 27.9596 34.1513 27.9596 34.3444 27.9596 34.3444 27.9498 37.7936 27.9498 37.7936 27.9473 38.9767 28.7809 40.414 29.8076 41.0056 30.5629 41.4333 33.1638 42.944 33.8751 43.3498 34.3713 43.5576 34.1611 42.7607 33.8751 42.6556 33.8751 42.6556 32.8167 42.0444 32.8167 42.0444 31.4527 41.118 28.4949 40.2111 28.5536 38.1431 28.5536 38.1431 28.5633 34.694 28.5633 34.694 28.5633 34.5033 28.4289 34.2687 28.2627 34.1733Z" fill="#BEBFBE" transform="matrix(1.09091 0 0 1 285 7677)"/><path d="M39.8933 39.1649C39.2089 38.7713 36.5616 37.246 35.8258 36.8207 35.3882 36.5713 34.9996 36.08 34.7844 35.5838 34.4031 34.9507 34.6329 31.9293 34.5816 31.2033 34.5864 30.9638 34.3298 30.5604 34.0633 30.6607 34.0633 30.6607 28.0451 34.1513 28.0451 34.1513 28.1013 34.1196 28.1771 34.1244 28.2602 34.1733 28.4338 34.2784 28.5584 34.4936 28.5609 34.694 28.5609 34.694 28.5511 38.1431 28.5511 38.1431 28.5144 40.238 31.4258 41.096 32.8142 42.0444 33.1418 42.2938 34.5473 42.7704 34.0853 43.3693 34.0853 43.3693 40.1036 39.8787 40.1036 39.8787 40.3211 39.6978 40.0987 39.2798 39.8909 39.1624Z" fill="#D9D9D6" transform="matrix(1.09091 0 0 1 285 7677)"/><path d="M0.647778 27.9131 0.66 29.2551 1.72822 29.084 1.72822 27.9107C1.72822 27.9107 0.647778 27.9107 0.647778 27.9107ZM5.20911 10.3229 5.74689 11.2542 6.86889 10.6089 6.33111 9.67756 5.20911 10.3229ZM1.94822 13.64C2.05578 13.4762 2.21956 13.2953 2.38578 13.1902 2.38578 13.1902 1.83822 12.2638 1.83822 12.2638 1.47889 12.4789 1.17333 12.826 0.963111 13.1878 0.921556 13.266 0.840889 13.4127 0.809111 13.4958 0.809111 13.4958 1.79667 13.9236 1.79667 13.9236 1.82844 13.8502 1.90422 13.706 1.94822 13.64ZM2.96511 11.616 3.50289 12.5449 4.62489 11.8996 4.08711 10.9707 2.96511 11.616ZM1.68911 14.982 0.613555 14.982C0.613555 14.982 0.616 16.2776 0.616 16.2776L1.69156 16.2776C1.69156 16.2776 1.68911 14.982 1.68911 14.982ZM1.70378 20.1544 0.628222 20.1544C0.628222 20.1544 0.630667 21.45 0.630667 21.45L1.70622 21.45C1.70622 21.45 1.70378 20.1544 1.70378 20.1544ZM1.69644 17.5682 0.618444 17.5682C0.618444 17.5682 0.620889 18.8638 0.620889 18.8638L1.69644 18.8638C1.69644 18.8638 1.694 17.5682 1.694 17.5682ZM1.71844 25.3244 0.640444 25.3244C0.640444 25.3244 0.642889 26.62 0.642889 26.62L1.71844 26.62C1.71844 26.62 1.716 25.3244 1.716 25.3244ZM1.71111 22.7382 0.635556 22.7382C0.635556 22.7382 0.638 24.0338 0.638 24.0338L1.71356 24.0338C1.71356 24.0338 1.71111 22.7382 1.71111 22.7382ZM2.73778 29.8173C2.64 29.7587 2.44444 29.656 2.34667 29.5949 2.32711 29.6316 1.91156 30.3356 1.87733 30.3967 1.87733 30.3967 1.804 30.5238 1.804 30.5238 2.26356 30.8538 2.83556 31.0273 3.366 30.7096 3.366 30.7096 2.85756 29.7611 2.85756 29.7611 2.77689 29.8027 2.73289 29.8076 2.73778 29.8198ZM7.45311 9.03222 7.99089 9.96356 9.11289 9.31822 8.57511 8.38689 7.45311 9.03222ZM18.6731 2.56667 19.2109 3.498 20.3329 2.85022 19.7951 1.91889 18.6731 2.56667ZM24.2489 1.12933 23.7624 0.845778 23.2198 1.77467C23.496 1.96289 23.7551 1.98 23.7282 2.22444 23.7282 2.22444 24.8038 2.21956 24.8038 2.21956 24.8038 1.73067 24.6009 1.32978 24.2489 1.12689ZM24.8087 3.43444 23.7307 3.43444C23.7307 3.43444 23.7331 4.73 23.7331 4.73L24.8087 4.73C24.8087 4.73 24.8062 3.43444 24.8062 3.43444ZM22.066 0.611111C21.9829 0.652667 20.9856 1.23444 20.9147 1.27356 20.9147 1.27356 21.4524 2.20489 21.4524 2.20489L22.5696 1.562C22.6087 1.54 22.6478 1.51067 22.682 1.47644 22.3569 1.17333 22.2469 1.01689 22.066 0.613555ZM11.9411 6.446 12.4789 7.37489 13.6009 6.72711 13.0631 5.79822 11.9411 6.446ZM9.69711 7.73667 10.2349 8.668 11.3569 8.02267 10.8191 7.09378 9.69711 7.73911ZM16.4291 3.85733 16.9669 4.78867 18.0889 4.14333 17.5511 3.212 16.4291 3.85733ZM14.1851 5.15289 14.7229 6.08178 15.8449 5.43644 15.3071 4.50511 14.1851 5.15044Z" fill="#0078D4" transform="matrix(1.09091 0 0 1 285 7677)"/><path d="M28.644 3.058C29.2551 2.706 29.7538 2.98956 29.7562 3.69111L29.8027 20.2302C29.8027 20.9318 29.3089 21.7873 28.6978 22.1393L5.95467 35.2464C5.34356 35.5984 4.84489 35.3149 4.84244 34.6133L4.796 18.0742C4.796 17.3727 5.28978 16.5171 5.90089 16.1651L28.644 3.058Z" fill="#155EA1" transform="matrix(1.09091 0 0 1 285 7677)"/><path d="M29.0693 2.91133C29.1989 2.89422 29.3284 2.92356 29.4336 2.98222 28.82 2.706 28.2113 1.97267 27.544 2.42 27.544 2.42 4.80089 15.5247 4.80089 15.5247 4.66889 15.6004 4.54422 15.7056 4.43178 15.8107 4.00889 16.2384 3.70822 16.8251 3.696 17.4338 3.696 17.4338 3.74244 33.9729 3.74244 33.9729 3.65933 34.76 4.72511 34.9727 5.16756 35.3222 4.96956 35.2073 4.84489 34.9604 4.84489 34.6133L4.79844 18.0742C4.80333 17.6929 4.93289 17.3164 5.12111 16.9864 5.31178 16.6589 5.57578 16.3607 5.90089 16.1651 5.90089 16.1651 28.644 3.06044 28.644 3.06044 28.7833 2.98222 28.9178 2.93089 29.0693 2.91378Z" fill="#2A446F" transform="matrix(1.09091 0 0 1 285 7677)"/><path d="M35.4371 6.76133C36.0482 6.40933 36.5469 6.69289 36.5493 7.39444L36.5958 23.9336C36.5958 24.6351 36.102 25.4907 35.4909 25.8427L12.7478 38.9473C12.1367 39.2993 11.638 39.0158 11.6356 38.3142L11.5891 21.7751C11.5891 21.0736 12.0829 20.218 12.694 19.866L35.4371 6.76133Z" fill="#238CD9" transform="matrix(1.09091 0 0 1 285 7677)"/><path d="M35.8624 6.61467C35.992 6.59756 36.1216 6.62689 36.2267 6.68556 35.6131 6.40933 35.0044 5.676 34.3371 6.12333 34.3371 6.12333 11.594 19.228 11.594 19.228 11.462 19.3038 11.3373 19.4089 11.2249 19.514 10.802 19.9418 10.5013 20.5284 10.4891 21.1371 10.4891 21.1371 10.5356 37.6762 10.5356 37.6762 10.4524 38.4633 11.5182 38.676 11.9607 39.0256 11.7627 38.9107 11.638 38.6638 11.638 38.3167L11.5916 21.7776C11.5964 21.3962 11.726 21.0198 11.9142 20.6898 12.1049 20.3622 12.3689 20.064 12.694 19.8684 12.694 19.8684 35.4371 6.76378 35.4371 6.76378 35.5764 6.68556 35.7109 6.63422 35.8624 6.61711Z" fill="#0078D4" transform="matrix(1.09091 0 0 1 285 7677)"/><path d="M42.2302 9.32311C42.8413 8.97111 43.34 9.25467 43.3424 9.95622L43.3889 26.4953C43.3889 27.1969 42.8951 28.0524 42.284 28.4044L19.5409 41.5091C18.9298 41.8611 18.4311 41.5776 18.4287 40.876L18.3822 24.3369C18.3822 23.6353 18.876 22.7798 19.4871 22.4278L42.2302 9.32311Z" fill="#8DC8E8" transform="matrix(1.09091 0 0 1 285 7677)"/><path d="M42.6556 9.17644C42.7851 9.15933 42.9147 9.18867 43.0198 9.24733 42.4062 8.97111 41.7976 8.23778 41.1302 8.68511 41.1302 8.68511 18.3871 21.7898 18.3871 21.7898 17.7467 22.1907 17.3042 22.9411 17.2822 23.6989 17.2822 23.6989 17.3287 40.238 17.3287 40.238 17.2456 41.0251 18.3113 41.2378 18.7538 41.5873 18.5558 41.4724 18.4311 41.2256 18.4311 40.8784L18.3847 24.3393C18.3896 23.958 18.5191 23.5816 18.7073 23.2516 18.898 22.924 19.162 22.6258 19.4871 22.4302 19.4871 22.4302 42.2302 9.32556 42.2302 9.32556 42.3696 9.24733 42.504 9.196 42.6556 9.17889Z" fill="#46A0DE" transform="matrix(1.09091 0 0 1 285 7677)"/><path d="M34.8749 19.1327C34.7942 19.3551 34.8162 19.5629 34.9458 19.6362 38.9742 21.9707 33.3544 33.2127 28.3507 31.0151 25.1582 29.3309 28.1282 21.7556 31.4331 20.0909 31.4282 20.2204 31.262 20.7998 31.5798 20.5407 31.5798 20.5407 33.0831 19.0178 33.0831 19.0178 33.1784 18.964 33.2518 18.9762 33.3471 18.9542 33.8604 18.876 34.4104 18.9249 34.8749 19.1302Z" fill="url(#fill0)" transform="matrix(1.09091 0 0 1 285 7677)"/><path d="M28.7784 25.0067C29.2307 25.0531 31.2351 25.2609 31.6458 25.3049 31.658 26.1189 31.6384 28.3067 31.636 29.1476 31.636 29.1476 28.7613 28.8493 28.7613 28.8493 28.7613 28.8249 28.7784 25.0262 28.7784 25.0067Z" fill="#9CEBFF" transform="matrix(1.09091 0 0 1 285 7677)"/><path d="M34.5229 21.7116 34.5327 25.5396 31.6556 29.1231 31.6482 26.5882 31.6556 25.3073 34.5229 21.7116Z" fill="#50E6FF" transform="matrix(1.09091 0 0 1 285 7677)"/><path d="M31.6336 21.4524 34.5229 21.7116 31.6433 25.2976 31.0322 25.2413 28.7784 25.0067 31.6336 21.4524Z" fill="#C3F1FF" transform="matrix(1.09091 0 0 1 285 7677)"/><path d="M31.7778 18.2136C31.8096 18.194 31.8413 18.1891 31.8682 18.1964 31.8878 18.216 33.2713 18.5876 33.2053 18.656 33.4009 18.9347 31.6996 20.3402 31.5871 20.5407 31.2742 20.7998 31.4282 20.218 31.4404 20.0909 30.2769 20.8193 29.1696 22.0122 28.3482 23.4324 25.6838 27.786 27.0184 33.176 31.6727 30.6851 35.0387 29.128 38.2384 21.4304 34.9556 19.6362 34.7796 19.5507 34.826 19.184 34.9556 18.986 35.0778 18.7807 35.2953 18.5704 35.5104 18.6658 36.5176 19.2402 37.0969 20.4649 37.1213 22.0856 37.1751 25.5224 34.7747 29.7587 31.7533 31.5504 28.7907 33.3276 26.2289 32.0344 26.1898 28.5731 26.136 25.1362 28.5364 20.9 31.5553 19.1082 31.6042 18.9371 31.5651 18.3016 31.7802 18.216Z" fill="#FFFFFF" transform="matrix(1.09091 0 0 1 285 7677)"/></g></svg>