<svg width="55" height="58" xmlns="http://www.w3.org/2000/svg" xmlns:xlink="http://www.w3.org/1999/xlink" xml:space="preserve" overflow="hidden"><defs><linearGradient x1="24.7317" y1="19.7082" x2="24.7317" y2="55.5804" gradientUnits="userSpaceOnUse" spreadMethod="pad" id="fill0"><stop offset="0" stop-color="#54AEF0"/><stop offset="0.1" stop-color="#54AEF0"/><stop offset="1" stop-color="#1988D9"/></linearGradient><linearGradient x1="209.954" y1="13.6583" x2="209.954" y2="206.292" gradientUnits="userSpaceOnUse" spreadMethod="pad" id="fill1"><stop offset="0" stop-color="#54AEF0"/><stop offset="0.1" stop-color="#54AEF0"/><stop offset="1" stop-color="#1988D9"/></linearGradient><linearGradient x1="41.2225" y1="28.6611" x2="41.2225" y2="52.6472" gradientUnits="userSpaceOnUse" spreadMethod="pad" id="fill2"><stop offset="0" stop-color="#FFD70F"/><stop offset="0.12" stop-color="#FFCC11"/><stop offset="0.44" stop-color="#FEB517"/><stop offset="0.75" stop-color="#FEA61A"/><stop offset="1" stop-color="#FEA11B"/></linearGradient></defs><g transform="translate(-974 -7672)"><path d="M42.5639 49.1028C44.6725 49.1181 46.3952 47.4225 46.4139 45.3139 46.4292 45.1614 46.4292 45.008 46.4139 44.8556 44.9167 32.6333 38.0111 22.9167 25.025 22.9167 12.0389 22.9167 4.52222 31.2583 3.05556 44.8861 2.85978 46.9993 4.39798 48.8779 6.50833 49.1028Z" fill="url(#fill0)" transform="matrix(1 0 0 1.05455 974 7672)"/><path d="M24.8417 25.7889C22.5295 25.7754 20.27 25.0965 18.3333 23.8333L24.75 40.8222 31.2278 23.9556C29.3092 25.1446 27.0988 25.7792 24.8417 25.7889Z" fill="#FFFFFF" fill-opacity="0.8" transform="matrix(1 0 0 1.05455 974 7672)"/><path d="M36.9722 13.6583C36.9722 20.3579 31.5412 25.7889 24.8417 25.7889 18.1421 25.7889 12.7111 20.3579 12.7111 13.6583 12.7111 6.95881 18.1421 1.52778 24.8417 1.52778 31.5412 1.52778 36.9722 6.95881 36.9722 13.6583Z" fill="url(#fill1)" transform="matrix(1 0 0 1.05455 974 7672)"/><path d="M51.9139 39.5878C51.9139 46.6369 43.8075 52.8183 41.5983 53.4294 41.3527 53.4997 41.0923 53.4997 40.8467 53.4294 38.6375 52.8183 30.5281 46.6125 30.5281 39.5878L30.5281 31.1269C30.4885 30.7808 30.7352 30.4672 31.0811 30.4242 31.1309 30.418 31.181 30.418 31.2308 30.4242 37.8125 30.1889 36.4008 27.3686 41.1003 27.3686 45.7997 27.3686 44.3911 30.1889 50.9697 30.4242 51.3159 30.3827 51.6309 30.6283 51.6756 30.9742 51.6817 31.024 51.6817 31.0741 51.6756 31.1239Z" fill="#DFA500" transform="matrix(1 0 0 1.05455 974 7672)"/><path d="M41.1033 40.5289 41.1033 28.6611C45.5706 28.6611 44.1589 31.1269 50.27 31.3622 50.6489 31.3864 50.9505 31.6892 50.9728 32.0681L50.9728 40.2936ZM41.1033 40.5289 31.4722 40.5289C31.9428 46.64 39.2272 51.3364 40.8711 52.2775L41.3417 52.5128Z" fill="url(#fill2)" transform="matrix(1 0 0 1.05455 974 7672)"/><path d="M31.9397 31.4539C38.0508 31.2186 36.6392 28.6611 41.1064 28.6611L41.1064 40.5289 31.4722 40.5289 31.4722 32.0344C31.4722 31.57 31.7044 31.4539 31.9397 31.4539Z" fill="#FFD400" transform="matrix(1 0 0 1.05455 974 7672)"/><path d="M50.9728 40.2936 41.1033 40.5289 41.3386 52.5128C42.9856 51.3333 50.27 46.4017 50.9728 40.2936Z" fill="#FFD400" transform="matrix(1 0 0 1.05455 974 7672)"/></g></svg>