<svg width="43" height="42" xmlns="http://www.w3.org/2000/svg" xmlns:xlink="http://www.w3.org/1999/xlink" xml:space="preserve" overflow="hidden"><defs><clipPath id="clip0"><rect x="1303" y="7468" width="43" height="42"/></clipPath></defs><g clip-path="url(#clip0)" transform="translate(-1303 -7468)"><path d="M28.56 32.76 28.56 0 0.84 0 0.84 32.76 28.56 32.76Z" fill="#59B4D9" transform="matrix(1.02381 0 0 1 1303 7468)"/><path d="M26.88 31.08 26.88 1.68 2.52 1.68 2.52 31.08 26.88 31.08Z" fill="#FFFFFF" fill-opacity="0.8" transform="matrix(1.02381 0 0 1 1303 7468)"/><path d="M23.52 5.04 13.44 5.04 13.44 6.72 23.52 6.72 23.52 5.04ZM20.16 8.4 13.44 8.4 13.44 10.08 20.16 10.08 20.16 8.4ZM20.16 16.8 13.44 16.8 13.44 18.48 20.16 18.48 20.16 16.8ZM20.16 25.2 13.44 25.2 13.44 26.88 20.16 26.88 20.16 25.2ZM23.52 13.44 13.44 13.44 13.44 15.12 23.52 15.12 23.52 13.44ZM23.52 21.84 13.44 21.84 13.44 23.52 23.52 23.52 23.52 21.84Z" fill="#59B4D9" transform="matrix(1.02381 0 0 1 1303 7468)"/><path d="M28.98 36.2264C32.982 36.2264 36.2264 32.982 36.2264 28.98 36.2264 24.9779 32.982 21.7336 28.98 21.7336 24.9779 21.7336 21.7336 24.9779 21.7336 28.98 21.7336 32.982 24.9779 36.2264 28.98 36.2264Z" fill="#FFFFFF" transform="matrix(1.02381 0 0 1 1303 7468)"/><path d="M20.8964 28.98C20.8964 31.0856 21.7084 33.0008 23.0356 34.44L31.08 34.44 31.08 21.5964C30.3279 21.2618 29.5338 21.031 28.7196 20.9104 24.3632 21.0523 20.9031 24.6213 20.8964 28.98Z" fill="#3999C6" fill-opacity="0.4" transform="matrix(1.02381 0 0 1 1303 7468)"/><path d="M21.84 32.0096C20.7559 30.714 20.1613 29.0788 20.16 27.3896 20.1452 23.5042 23.2129 20.3064 27.0956 20.16 27.6388 20.2468 28.1624 20.384 28.6636 20.5688L28.6636 32.0096 21.84 32.0096Z" fill="#FFFFFF" fill-opacity="0.6" transform="matrix(1.02381 0 0 1 1303 7468)"/><path d="M40.4684 42C41.2555 42.0048 41.8972 41.3703 41.902 40.5832 41.902 40.5812 41.902 40.5796 41.902 40.5776 41.9054 40.1971 41.7561 39.8308 41.4876 39.5612L36.5344 34.608 34.51 36.6324 39.4492 41.5744C39.718 41.8471 40.0854 42.0006 40.4684 42Z" fill="#7A7A7A" transform="matrix(1.02381 0 0 1 1303 7468)"/><path d="M36.302 38.4244C37.1638 37.9736 37.8672 37.2702 38.318 36.4084L38.3236 36.3972 36.9516 35.0252 34.9272 37.0496 36.2992 38.4272 36.302 38.4244Z" fill="#000000" fill-opacity="0.4" transform="matrix(1.02381 0 0 1 1303 7468)"/><path d="M28.98 18.984C23.4594 18.984 18.984 23.4594 18.984 28.98 18.984 34.5008 23.4594 38.976 28.98 38.976 34.5008 38.976 38.976 34.5008 38.976 28.98 38.976 23.4594 34.5008 18.984 28.98 18.984ZM28.98 36.2236C24.9803 36.2205 21.7382 32.9798 21.7336 28.98 21.7382 24.9803 24.9803 21.7395 28.98 21.7364 32.9798 21.7395 36.2216 24.9803 36.2264 28.98 36.2233 32.9809 32.9809 36.2233 28.98 36.2264Z" fill="#7A7A7A" transform="matrix(1.02381 0 0 1 1303 7468)"/><path d="M7.1848 18.452 4.6928 15.9292C4.59491 15.8309 4.59491 15.6719 4.6928 15.5736L5.2332 15.0416C5.33151 14.9437 5.49046 14.9437 5.5888 15.0416L7.1512 16.6236 9.8504 13.1516C9.9356 13.0421 10.0933 13.022 10.2032 13.1068L10.7996 13.5716C10.9091 13.6568 10.9292 13.8145 10.8444 13.9244L7.336 18.4408C7.30162 18.4846 7.23825 18.4922 7.19446 18.4579 7.19107 18.4552 7.18782 18.4523 7.1848 18.4492ZM7.1848 26.852 4.6928 24.3292C4.59491 24.2309 4.59491 24.0719 4.6928 23.9736L5.2332 23.4416C5.33151 23.3437 5.49046 23.3437 5.5888 23.4416L7.1512 25.0236 9.8504 21.5516C9.9356 21.4421 10.0933 21.422 10.2032 21.5068L10.7996 21.9716C10.9091 22.0568 10.9292 22.2145 10.8444 22.3244L7.336 26.8408C7.30162 26.8846 7.23825 26.8922 7.19446 26.8579 7.19107 26.8552 7.18782 26.8523 7.1848 26.8492Z" fill="#59B4D9" transform="matrix(1.02381 0 0 1 1303 7468)"/><path d="M10.08 5.04 5.04 10.08M10.08 10.08 5.04 5.04" stroke="#59B4D9" stroke-width="1.4" transform="matrix(1.02381 0 0 1 1303 7468)"/></g></svg>