<svg width="50" height="48" xmlns="http://www.w3.org/2000/svg" xmlns:xlink="http://www.w3.org/1999/xlink" xml:space="preserve" overflow="hidden"><defs><linearGradient x1="29.5467" y1="36.3467" x2="8.45333" y2="-0.106666" gradientUnits="userSpaceOnUse" spreadMethod="pad" id="fill0"><stop offset="0" stop-color="#5E9624"/><stop offset="0.26" stop-color="#70A828"/><stop offset="0.79" stop-color="#9FD732"/><stop offset="1" stop-color="#B4EC36"/></linearGradient></defs><g transform="translate(-283 -7455)"><path d="M33.0133 18.9867C33.0133 29.1467 20.48 37.3333 17.76 38.9867 17.4454 39.1976 17.0346 39.1976 16.72 38.9867 14 37.3333 1.49333 29.1467 1.49333 18.9867L1.49333 6.74667C1.50732 6.22237 1.92904 5.80067 2.45333 5.78667 12.1867 5.52 9.94667 1.33333 17.2533 1.33333 24.56 1.33333 22.2933 5.52 32 5.78667 32.5291 5.79987 32.9589 6.21808 32.9867 6.74667Z" fill="#86D633" transform="matrix(1.04167 0 0 1 283 7455)"/><path d="M31.7067 19.0933C31.7067 28.4267 20.2133 35.92 17.7333 37.44 17.4415 37.6299 17.0651 37.6299 16.7733 37.44 14.2667 35.92 2.8 28.4267 2.8 19.0933L2.8 8C2.8 7.514 3.194 7.12 3.68 7.12 12.6133 6.74667 10.6667 2.90667 17.2533 2.90667 23.84 2.90667 21.8933 6.74667 30.8 6.98667 31.2904 6.98645 31.6923 7.37637 31.7067 7.86667Z" fill="url(#fill0)" transform="matrix(1.04167 0 0 1 283 7455)"/><path d="M16.7733 23.0667 45.52 23.0667C46.0347 23.0364 46.4763 23.429 46.5064 23.9436 46.5067 23.9446 46.5067 23.9457 46.5067 23.9467L46.5067 45.7867C46.4781 46.3013 46.0376 46.6955 45.5229 46.6669 45.5221 46.6667 45.5211 46.6667 45.52 46.6667L16.7733 46.6667C16.2627 46.6827 15.829 46.2957 15.7867 45.7867L15.7867 24C15.8012 23.47 16.2426 23.0521 16.7726 23.0666 16.7728 23.0666 16.7731 23.0667 16.7733 23.0667Z" fill="#9CEBFF" transform="matrix(1.04167 0 0 1 283 7455)"/><path d="M16.72 23.0667 45.5733 23.0667C46.0584 23.0364 46.4763 23.405 46.5064 23.8901 46.5067 23.8912 46.5067 23.8923 46.5067 23.8933L46.5067 27.2 15.7867 27.2 15.7867 24C15.8152 23.5148 16.2316 23.1446 16.7168 23.1731 16.7178 23.1732 16.7189 23.1733 16.72 23.1733ZM42.32 35.76 23.36 35.76C22.9333 35.76 22.6133 35.9733 22.6133 36.1867L22.6133 37.3333C22.6133 37.5733 22.9333 37.76 23.36 37.76L42.32 37.76C42.7467 37.76 43.0933 37.5733 43.0933 37.3333L43.0933 36.2667C43.0933 35.9733 42.6667 35.76 42.32 35.76ZM42.32 30.96 23.36 30.96C22.9333 30.96 22.6133 31.1467 22.6133 31.3867L22.6133 32.4267C22.6133 32.6667 22.9333 32.8533 23.36 32.8533L42.32 32.8533C42.7467 32.8533 43.0933 32.6667 43.0933 32.4267L43.0933 31.3867C43.0933 31.1467 42.6667 30.96 42.32 30.96ZM42.32 41.1733 23.36 41.1733C22.9333 41.1733 22.6133 41.36 22.6133 41.6L22.6133 42.6667C22.6133 42.9067 22.9333 43.0933 23.36 43.0933L42.32 43.0933C42.7467 43.0933 43.0933 42.9067 43.0933 42.6667L43.0933 41.6C43.0933 41.36 42.6667 41.1733 42.32 41.1733Z" fill="#0078D4" transform="matrix(1.04167 0 0 1 283 7455)"/><path d="M20.72 31.8933C20.72 32.5855 20.1589 33.1467 19.4667 33.1467 18.7745 33.1467 18.2133 32.5855 18.2133 31.8933 18.2133 31.2011 18.7745 30.64 19.4667 30.64 20.1589 30.64 20.72 31.2011 20.72 31.8933Z" fill="#0078D4" transform="matrix(1.04167 0 0 1 283 7455)"/><path d="M20.72 36.72C20.72 37.4122 20.1589 37.9733 19.4667 37.9733 18.7745 37.9733 18.2133 37.4122 18.2133 36.72 18.2133 36.0278 18.7745 35.4667 19.4667 35.4667 20.1589 35.4667 20.72 36.0278 20.72 36.72Z" fill="#0078D4" transform="matrix(1.04167 0 0 1 283 7455)"/><path d="M20.72 42.1333C20.72 42.8255 20.1589 43.3867 19.4667 43.3867 18.7745 43.3867 18.2133 42.8255 18.2133 42.1333 18.2133 41.4411 18.7745 40.88 19.4667 40.88 20.1589 40.88 20.72 41.4411 20.72 42.1333Z" fill="#0078D4" transform="matrix(1.04167 0 0 1 283 7455)"/></g></svg>