<svg width="113" height="113" xmlns="http://www.w3.org/2000/svg" xmlns:xlink="http://www.w3.org/1999/xlink" xml:space="preserve" overflow="hidden"><defs><clipPath id="clip0"><rect x="73" y="398" width="113" height="113"/></clipPath><linearGradient x1="113.611" y1="447.965" x2="113.611" y2="515.394" gradientUnits="userSpaceOnUse" spreadMethod="pad" id="fill1"><stop offset="0" stop-color="#50E6FF"/><stop offset="0.225" stop-color="#50E6FF"/><stop offset="1" stop-color="#198AB3"/></linearGradient><linearGradient x1="111.903" y1="411.817" x2="116.825" y2="473.038" gradientUnits="userSpaceOnUse" spreadMethod="pad" id="fill2"><stop offset="0" stop-color="#50E6FF"/><stop offset="0.225" stop-color="#50E6FF"/><stop offset="1" stop-color="#198AB3"/></linearGradient></defs><g clip-path="url(#clip0)" transform="translate(-73 -398)"><path d="M146.971 503.222C150.958 503.236 154.202 500.015 154.216 496.027 154.216 496.027 154.216 496.027 154.216 496.027 154.217 495.736 154.201 495.444 154.165 495.155 151.328 472.461 138.377 453.973 113.674 453.973 88.5626 453.973 75.5676 469.623 73.0377 495.218 72.6319 499.205 75.5299 502.769 79.5163 503.184 79.7583 503.209 80.0014 503.222 80.2446 503.222Z" fill="url(#fill1)"/><path d="M114.063 459.353C109.692 459.371 105.409 458.122 101.733 455.756L113.937 487.647 126.06 455.938C122.459 458.176 118.303 459.36 114.063 459.353Z" fill="#FFFFFF" fill-opacity="0.8"/><path d="M136.669 436.583C136.669 449.162 126.472 459.359 113.893 459.359 101.315 459.359 91.1177 449.162 91.1177 436.583 91.1177 424.005 101.315 413.807 113.893 413.807 126.472 413.807 136.669 424.005 136.669 436.583Z" fill="url(#fill2)"/><path d="M186 452.058 186 442.742 184.694 442.252 174.7 438.981 172.088 432.609 177.211 421.856 170.638 415.289 169.332 415.917 160.023 420.65 153.651 418.089 149.589 406.789 140.248 406.789 139.758 408.095 136.493 418.089 130.159 420.688C133.262 423.849 135.37 427.849 136.223 432.195 144.784 427.252 155.73 430.185 160.673 438.746 165.615 447.306 162.682 458.252 154.122 463.195 151.395 464.77 148.3 465.597 145.15 465.593 143.795 465.581 142.445 465.416 141.126 465.103 146.054 470.411 149.667 476.802 151.673 483.761L153.814 477.238 160.186 474.62 170.965 479.686 177.506 473.151 176.878 471.845 172.145 462.529 174.7 456.138Z" fill="#0078D4"/></g></svg>