<svg width="95" height="99" xmlns="http://www.w3.org/2000/svg" xmlns:xlink="http://www.w3.org/1999/xlink" xml:space="preserve" overflow="hidden"><defs><clipPath id="clip0"><rect x="85" y="1769" width="95" height="99"/></clipPath><linearGradient x1="35.3611" y1="38.3167" x2="35.3611" y2="96.9" gradientUnits="userSpaceOnUse" spreadMethod="pad" id="fill1"><stop offset="0" stop-color="#32D4F5"/><stop offset="0.22" stop-color="#32D4F5"/><stop offset="1" stop-color="#198AB3"/></linearGradient><linearGradient x1="33.8833" y1="6.96667" x2="38.1583" y2="60.1139" gradientUnits="userSpaceOnUse" spreadMethod="pad" id="fill2"><stop offset="0" stop-color="#32D4F5"/><stop offset="0.22" stop-color="#32D4F5"/><stop offset="1" stop-color="#198AB3"/></linearGradient></defs><g clip-path="url(#clip0)" transform="translate(-85 -1769)"><path d="M90.8833 73.4667C93.186 73.4957 95.076 71.6527 95.105 69.3505 95.1056 69.3326 95.1056 69.3152 95.1056 69.2972 95.1251 69.0634 95.0892 68.828 95 68.6111 93.3639 55.4167 85.8167 44.65 71.4611 44.65 57.1056 44.65 49.3472 53.9389 47.8694 68.6111 47.6542 70.9376 49.3464 73.0059 51.6694 73.2556L90.8833 73.2556Z" fill="#0078D4" transform="matrix(1 0 0 1.04211 85 1769)"/><path d="M71.5139 47.975C68.9652 47.9972 66.4673 47.2624 64.3361 45.8639L71.4611 64.4417 78.4806 46.0222C76.3811 47.2993 73.9712 47.9749 71.5139 47.975Z" fill="#FFFFFF" fill-opacity="0.8" transform="matrix(1 0 0 1.04211 85 1769)"/><path d="M84.7611 34.7278C84.7611 42.044 78.8301 47.975 71.5139 47.975 64.1976 47.975 58.2667 42.044 58.2667 34.7278 58.2667 27.4115 64.1976 21.4806 71.5139 21.4806 78.8301 21.4806 84.7611 27.4115 84.7611 34.7278Z" fill="#0078D4" transform="matrix(1 0 0 1.04211 85 1769)"/><path d="M64.3361 86.3444C67.8047 86.3444 70.6167 83.5324 70.6167 80.0639 70.6431 79.8185 70.6431 79.5704 70.6167 79.325 68.1361 59.5861 56.8944 43.5417 35.4667 43.5417 14.0389 43.5417 2.32222 57.1583 0 79.1667-0.337876 82.6315 2.18446 85.7201 5.64722 86.0806L64.2306 86.0806Z" fill="url(#fill1)" transform="matrix(1 0 0 1.04211 85 1769)"/><path d="M35.7306 48.2389C31.9819 48.2127 28.319 47.1139 25.175 45.0722L35.7306 72.7806 46.2861 45.2833C43.1092 47.227 39.4549 48.2502 35.7306 48.2389Z" fill="#FFFFFF" fill-opacity="0.8" transform="matrix(1 0 0 1.04211 85 1769)"/><path d="M55.3639 28.4472C55.3639 39.3779 46.5029 48.2389 35.5722 48.2389 24.6416 48.2389 15.7806 39.3779 15.7806 28.4472 15.7806 17.5166 24.6416 8.65555 35.5722 8.65555 46.5029 8.65555 55.3639 17.5166 55.3639 28.4472Z" fill="url(#fill2)" transform="matrix(1 0 0 1.04211 85 1769)"/></g></svg>